<svg xmlns="http://www.w3.org/2000/svg" xmlns:xlink="http://www.w3.org/1999/xlink" width="500" zoomAndPan="magnify" viewBox="0 0 375 374.999991" height="500" preserveAspectRatio="xMidYMid meet" version="1.0"><defs><g/><clipPath id="e5a98ef4e1"><path d="M 0.398438 273 L 299.679688 273 L 299.679688 343 L 0.398438 343 Z M 0.398438 273 " clip-rule="nonzero"/></clipPath><clipPath id="d3b006c22d"><rect x="0" width="300" y="0" height="70"/></clipPath><clipPath id="8c905b692a"><path d="M 34 328 L 257 328 L 257 352.558594 L 34 352.558594 Z M 34 328 " clip-rule="nonzero"/></clipPath><clipPath id="ae50f10502"><rect x="0" width="223" y="0" height="25"/></clipPath><clipPath id="2d4b65ea79"><path d="M 18.488281 0.222656 L 272.15625 0.222656 L 272.15625 253.894531 L 18.488281 253.894531 Z M 18.488281 0.222656 " clip-rule="nonzero"/></clipPath><clipPath id="837cd7e88d"><path d="M 185.386719 0.222656 L 105.257812 0.222656 C 103.269531 0.222656 101.363281 1.015625 99.957031 2.421875 C 98.550781 3.828125 97.757812 5.734375 97.757812 7.722656 L 97.757812 71.996094 C 97.757812 73.984375 96.96875 75.894531 95.5625 77.300781 C 94.15625 78.707031 92.25 79.496094 90.257812 79.496094 L 25.988281 79.496094 C 24 79.496094 22.089844 80.285156 20.683594 81.691406 C 19.277344 83.097656 18.488281 85.007812 18.488281 86.996094 L 18.488281 167.121094 C 18.488281 169.109375 19.277344 171.019531 20.683594 172.425781 C 22.089844 173.832031 24 174.621094 25.988281 174.621094 L 90.257812 174.621094 C 92.25 174.621094 94.15625 175.414062 95.5625 176.820312 C 96.96875 178.226562 97.757812 180.132812 97.757812 182.121094 L 97.757812 246.394531 C 97.757812 248.382812 98.550781 250.289062 99.957031 251.695312 C 101.363281 253.105469 103.269531 253.894531 105.257812 253.894531 L 185.386719 253.894531 C 187.375 253.894531 189.28125 253.105469 190.6875 251.695312 C 192.09375 250.289062 192.886719 248.382812 192.886719 246.394531 L 192.886719 182.121094 C 192.886719 180.132812 193.675781 178.226562 195.082031 176.820312 C 196.488281 175.414062 198.394531 174.621094 200.386719 174.621094 L 264.65625 174.621094 C 266.644531 174.621094 268.554688 173.832031 269.960938 172.425781 C 271.367188 171.019531 272.15625 169.109375 272.15625 167.121094 L 272.15625 86.996094 C 272.15625 85.007812 271.367188 83.097656 269.960938 81.691406 C 268.554688 80.285156 266.644531 79.496094 264.65625 79.496094 L 200.386719 79.496094 C 198.394531 79.496094 196.488281 78.707031 195.082031 77.300781 C 193.675781 75.894531 192.886719 73.984375 192.886719 71.996094 L 192.886719 7.722656 C 192.886719 5.734375 192.09375 3.828125 190.6875 2.421875 C 189.28125 1.015625 187.375 0.222656 185.386719 0.222656 Z M 185.386719 0.222656 " clip-rule="nonzero"/></clipPath><clipPath id="8df5aa1fcd"><path d="M 0.488281 0.222656 L 254.15625 0.222656 L 254.15625 253.894531 L 0.488281 253.894531 Z M 0.488281 0.222656 " clip-rule="nonzero"/></clipPath><clipPath id="98b660421e"><path d="M 167.386719 0.222656 L 87.257812 0.222656 C 85.269531 0.222656 83.363281 1.015625 81.957031 2.421875 C 80.550781 3.828125 79.757812 5.734375 79.757812 7.722656 L 79.757812 71.996094 C 79.757812 73.984375 78.96875 75.894531 77.5625 77.300781 C 76.15625 78.707031 74.25 79.496094 72.257812 79.496094 L 7.988281 79.496094 C 6 79.496094 4.089844 80.285156 2.683594 81.691406 C 1.277344 83.097656 0.488281 85.007812 0.488281 86.996094 L 0.488281 167.121094 C 0.488281 169.109375 1.277344 171.019531 2.683594 172.425781 C 4.089844 173.832031 6 174.621094 7.988281 174.621094 L 72.257812 174.621094 C 74.25 174.621094 76.15625 175.414062 77.5625 176.820312 C 78.96875 178.226562 79.757812 180.132812 79.757812 182.121094 L 79.757812 246.394531 C 79.757812 248.382812 80.550781 250.289062 81.957031 251.695312 C 83.363281 253.105469 85.269531 253.894531 87.257812 253.894531 L 167.386719 253.894531 C 169.375 253.894531 171.28125 253.105469 172.6875 251.695312 C 174.09375 250.289062 174.886719 248.382812 174.886719 246.394531 L 174.886719 182.121094 C 174.886719 180.132812 175.675781 178.226562 177.082031 176.820312 C 178.488281 175.414062 180.394531 174.621094 182.386719 174.621094 L 246.65625 174.621094 C 248.644531 174.621094 250.554688 173.832031 251.960938 172.425781 C 253.367188 171.019531 254.15625 169.109375 254.15625 167.121094 L 254.15625 86.996094 C 254.15625 85.007812 253.367188 83.097656 251.960938 81.691406 C 250.554688 80.285156 248.644531 79.496094 246.65625 79.496094 L 182.386719 79.496094 C 180.394531 79.496094 178.488281 78.707031 177.082031 77.300781 C 175.675781 75.894531 174.886719 73.984375 174.886719 71.996094 L 174.886719 7.722656 C 174.886719 5.734375 174.09375 3.828125 172.6875 2.421875 C 171.28125 1.015625 169.375 0.222656 167.386719 0.222656 Z M 167.386719 0.222656 " clip-rule="nonzero"/></clipPath><clipPath id="3f1f697e6f"><rect x="0" width="255" y="0" height="254"/></clipPath><clipPath id="f33f48e0bc"><path d="M 47.511719 63 L 243.417969 63 L 243.417969 230 L 47.511719 230 Z M 47.511719 63 " clip-rule="nonzero"/></clipPath><clipPath id="8dafd92b3f"><path d="M 55.269531 90.367188 C 39.40625 116.496094 50.582031 141.929688 64.625 155.429688 L 138.613281 226.414062 C 143.136719 230.753906 150.292969 230.722656 154.777344 226.339844 L 227.101562 155.710938 C 240.164062 141.1875 245.167969 125.785156 242.390625 108.632812 C 238.546875 84.90625 218.996094 66.5 194.84375 63.871094 C 180.03125 62.277344 165.71875 66.46875 154.550781 75.75 C 151.546875 78.246094 148.859375 81.039062 146.519531 84.074219 C 143.738281 80.617188 140.480469 77.457031 136.796875 74.65625 C 123.953125 64.894531 107.605469 61.019531 91.902344 64.035156 C 77.03125 66.90625 63.679688 76.5 55.269531 90.367188 Z M 55.269531 90.367188 " clip-rule="nonzero"/></clipPath><clipPath id="04deaab4f0"><path d="M 0.511719 0 L 196.417969 0 L 196.417969 167 L 0.511719 167 Z M 0.511719 0 " clip-rule="nonzero"/></clipPath><clipPath id="d0b004a35e"><path d="M 8.269531 27.367188 C -7.59375 53.496094 3.582031 78.929688 17.625 92.429688 L 91.613281 163.414062 C 96.136719 167.753906 103.292969 167.722656 107.777344 163.339844 L 180.101562 92.710938 C 193.164062 78.1875 198.167969 62.785156 195.390625 45.632812 C 191.546875 21.90625 171.996094 3.5 147.84375 0.871094 C 133.03125 -0.722656 118.71875 3.46875 107.550781 12.75 C 104.546875 15.246094 101.859375 18.039062 99.519531 21.074219 C 96.738281 17.617188 93.480469 14.457031 89.796875 11.65625 C 76.953125 1.894531 60.605469 -1.980469 44.902344 1.035156 C 30.03125 3.90625 16.679688 13.5 8.269531 27.367188 Z M 8.269531 27.367188 " clip-rule="nonzero"/></clipPath><clipPath id="eaaa3d7cd1"><rect x="0" width="197" y="0" height="167"/></clipPath><clipPath id="e9a424a24a"><path d="M 38 89 L 143 89 L 143 209 L 38 209 Z M 38 89 " clip-rule="nonzero"/></clipPath><clipPath id="a2ad002c52"><path d="M 86.238281 70.917969 L 155.40625 104.664062 L 96.144531 226.128906 L 26.976562 192.382812 Z M 86.238281 70.917969 " clip-rule="nonzero"/></clipPath><clipPath id="61c7d7590a"><path d="M 86.238281 70.917969 L 155.40625 104.664062 L 96.144531 226.128906 L 26.976562 192.382812 Z M 86.238281 70.917969 " clip-rule="nonzero"/></clipPath><clipPath id="6cc1c6da9e"><path d="M 137 29 L 280 29 L 280 178 L 137 178 Z M 137 29 " clip-rule="nonzero"/></clipPath><clipPath id="d6d1bf5ba2"><path d="M 192.148438 180.042969 L 134.234375 129.363281 L 223.238281 27.660156 L 281.152344 78.34375 Z M 192.148438 180.042969 " clip-rule="nonzero"/></clipPath><clipPath id="e4d70a579a"><path d="M 20 7 L 116 7 L 116 137 L 20 137 Z M 20 7 " clip-rule="nonzero"/></clipPath><clipPath id="55d28f1b33"><path d="M 55.148438 151.042969 L -2.765625 100.363281 L 86.238281 -1.339844 L 144.152344 49.34375 Z M 55.148438 151.042969 " clip-rule="nonzero"/></clipPath><clipPath id="39457508e3"><path d="M -2.804688 100.328125 L 55.109375 151.011719 L 144.113281 49.308594 L 86.199219 -1.375 Z M -2.804688 100.328125 " clip-rule="nonzero"/></clipPath><clipPath id="9191ff58e7"><rect x="0" width="143" y="0" height="149"/></clipPath><clipPath id="3b9a1dff56"><rect x="0" width="300" y="0" height="353"/></clipPath></defs><g transform="matrix(1, 0, 0, 1, 44, 12)"><g clip-path="url(#3b9a1dff56)"><g clip-path="url(#e5a98ef4e1)"><g transform="matrix(1, 0, 0, 1, 0, 273)"><g clip-path="url(#d3b006c22d)"><g fill="#00857b" fill-opacity="1"><g transform="translate(1.302864, 49.20385)"><g><path d="M 3.359375 -46.09375 L 20.171875 -46.09375 C 24.867188 -46.09375 28.664062 -44.878906 31.5625 -42.453125 C 34.46875 -40.035156 35.921875 -36.515625 35.921875 -31.890625 C 35.921875 -27.273438 34.445312 -23.65625 31.5 -21.03125 C 28.5625 -18.40625 24.785156 -17.09375 20.171875 -17.09375 L 13.859375 -17.09375 L 13.859375 0 L 3.359375 0 Z M 13.859375 -25.484375 L 16.8125 -25.484375 C 19.164062 -25.484375 21.09375 -25.957031 22.59375 -26.90625 C 24.101562 -27.851562 24.859375 -29.40625 24.859375 -31.5625 C 24.859375 -33.757812 24.101562 -35.332031 22.59375 -36.28125 C 21.09375 -37.238281 19.164062 -37.71875 16.8125 -37.71875 L 13.859375 -37.71875 Z M 13.859375 -25.484375 "/></g></g></g><g fill="#00857b" fill-opacity="1"><g transform="translate(36.604943, 49.20385)"><g><path d="M 3.359375 0 L 3.359375 -28.65625 L 13.25 -28.65625 L 13.25 -24.53125 L 13.359375 -24.53125 C 13.429688 -24.675781 13.550781 -24.859375 13.71875 -25.078125 C 13.882812 -25.304688 14.242188 -25.695312 14.796875 -26.25 C 15.359375 -26.8125 15.957031 -27.316406 16.59375 -27.765625 C 17.226562 -28.210938 18.046875 -28.613281 19.046875 -28.96875 C 20.054688 -29.320312 21.082031 -29.5 22.125 -29.5 C 23.207031 -29.5 24.269531 -29.347656 25.3125 -29.046875 C 26.351562 -28.753906 27.117188 -28.457031 27.609375 -28.15625 L 28.390625 -27.71875 L 24.25 -19.328125 C 23.019531 -20.367188 21.304688 -20.890625 19.109375 -20.890625 C 17.921875 -20.890625 16.894531 -20.628906 16.03125 -20.109375 C 15.175781 -19.585938 14.570312 -18.953125 14.21875 -18.203125 C 13.863281 -17.460938 13.613281 -16.832031 13.46875 -16.3125 C 13.320312 -15.789062 13.25 -15.382812 13.25 -15.09375 L 13.25 0 Z M 3.359375 0 "/></g></g></g><g fill="#00857b" fill-opacity="1"><g transform="translate(62.522797, 49.20385)"><g><path d="M 4.296875 -44.640625 C 5.453125 -45.796875 6.832031 -46.375 8.4375 -46.375 C 10.039062 -46.375 11.414062 -45.796875 12.5625 -44.640625 C 13.71875 -43.484375 14.296875 -42.101562 14.296875 -40.5 C 14.296875 -38.90625 13.71875 -37.53125 12.5625 -36.375 C 11.414062 -35.21875 10.039062 -34.640625 8.4375 -34.640625 C 6.832031 -34.640625 5.453125 -35.21875 4.296875 -36.375 C 3.140625 -37.53125 2.5625 -38.90625 2.5625 -40.5 C 2.5625 -42.101562 3.140625 -43.484375 4.296875 -44.640625 Z M 3.359375 -28.65625 L 3.359375 0 L 13.25 0 L 13.25 -28.65625 Z M 3.359375 -28.65625 "/></g></g></g><g fill="#00857b" fill-opacity="1"><g transform="translate(77.492397, 49.20385)"><g><path d="M 3.359375 0 L 3.359375 -28.65625 L 13.25 -28.65625 L 13.25 -25.640625 L 13.359375 -25.640625 C 15.921875 -28.210938 18.65625 -29.5 21.5625 -29.5 C 23.65625 -29.5 25.613281 -29.070312 27.4375 -28.21875 C 29.257812 -27.363281 30.632812 -26.039062 31.5625 -24.25 C 34.46875 -27.75 37.632812 -29.5 41.0625 -29.5 C 44.125 -29.5 46.753906 -28.640625 48.953125 -26.921875 C 51.148438 -25.210938 52.25 -22.535156 52.25 -18.890625 L 52.25 0 L 42.359375 0 L 42.359375 -16.203125 C 42.359375 -17.734375 41.9375 -19.007812 41.09375 -20.03125 C 40.257812 -21.050781 39.003906 -21.5625 37.328125 -21.5625 C 35.867188 -21.5625 34.757812 -21.125 34 -20.25 C 33.238281 -19.375 32.820312 -18.320312 32.75 -17.09375 L 32.75 0 L 22.859375 0 L 22.859375 -16.203125 C 22.859375 -17.734375 22.4375 -19.007812 21.59375 -20.03125 C 20.757812 -21.050781 19.503906 -21.5625 17.828125 -21.5625 C 16.296875 -21.5625 15.148438 -21.085938 14.390625 -20.140625 C 13.628906 -19.191406 13.25 -18.066406 13.25 -16.765625 L 13.25 0 Z M 3.359375 0 "/></g></g></g><g fill="#00857b" fill-opacity="1"><g transform="translate(130.613319, 49.20385)"><g><path d="M 32.359375 -12.96875 L 11.5625 -12.96875 C 11.5625 -10.957031 12.210938 -9.46875 13.515625 -8.5 C 14.828125 -7.53125 16.242188 -7.046875 17.765625 -7.046875 C 19.367188 -7.046875 20.632812 -7.257812 21.5625 -7.6875 C 22.5 -8.113281 23.5625 -8.957031 24.75 -10.21875 L 31.90625 -6.65625 C 28.925781 -1.65625 23.972656 0.84375 17.046875 0.84375 C 12.722656 0.84375 9.015625 -0.632812 5.921875 -3.59375 C 2.828125 -6.5625 1.28125 -10.128906 1.28125 -14.296875 C 1.28125 -18.472656 2.828125 -22.050781 5.921875 -25.03125 C 9.015625 -28.007812 12.722656 -29.5 17.046875 -29.5 C 21.585938 -29.5 25.28125 -28.1875 28.125 -25.5625 C 30.976562 -22.9375 32.40625 -19.179688 32.40625 -14.296875 C 32.40625 -13.628906 32.390625 -13.1875 32.359375 -12.96875 Z M 11.84375 -18.4375 L 22.734375 -18.4375 C 22.515625 -19.925781 21.929688 -21.070312 20.984375 -21.875 C 20.035156 -22.675781 18.816406 -23.078125 17.328125 -23.078125 C 15.679688 -23.078125 14.375 -22.644531 13.40625 -21.78125 C 12.4375 -20.925781 11.914062 -19.8125 11.84375 -18.4375 Z M 11.84375 -18.4375 "/></g></g></g><g fill="#00857b" fill-opacity="1"><g transform="translate(162.39632, 49.20385)"><g><path d="M 27.875 -9.5 C 29.476562 -9.5 31.035156 -9.738281 32.546875 -10.21875 C 34.054688 -10.707031 35.164062 -11.175781 35.875 -11.625 L 36.9375 -12.34375 L 41.40625 -3.40625 C 41.257812 -3.289062 41.050781 -3.140625 40.78125 -2.953125 C 40.519531 -2.773438 39.914062 -2.429688 38.96875 -1.921875 C 38.019531 -1.421875 37.003906 -0.984375 35.921875 -0.609375 C 34.847656 -0.242188 33.4375 0.0859375 31.6875 0.390625 C 29.9375 0.691406 28.128906 0.84375 26.265625 0.84375 C 21.972656 0.84375 17.910156 -0.207031 14.078125 -2.3125 C 10.242188 -4.414062 7.148438 -7.3125 4.796875 -11 C 2.453125 -14.6875 1.28125 -18.675781 1.28125 -22.96875 C 1.28125 -26.207031 1.96875 -29.316406 3.34375 -32.296875 C 4.726562 -35.273438 6.566406 -37.828125 8.859375 -39.953125 C 11.148438 -42.078125 13.820312 -43.769531 16.875 -45.03125 C 19.925781 -46.300781 23.054688 -46.9375 26.265625 -46.9375 C 29.242188 -46.9375 31.988281 -46.582031 34.5 -45.875 C 37.019531 -45.164062 38.800781 -44.457031 39.84375 -43.75 L 41.40625 -42.6875 L 36.9375 -33.75 C 36.675781 -33.96875 36.285156 -34.234375 35.765625 -34.546875 C 35.242188 -34.867188 34.195312 -35.289062 32.625 -35.8125 C 31.0625 -36.332031 29.476562 -36.59375 27.875 -36.59375 C 25.34375 -36.59375 23.070312 -36.179688 21.0625 -35.359375 C 19.050781 -34.546875 17.457031 -33.46875 16.28125 -32.125 C 15.113281 -30.78125 14.222656 -29.335938 13.609375 -27.796875 C 12.992188 -26.253906 12.6875 -24.679688 12.6875 -23.078125 C 12.6875 -19.578125 14 -16.4375 16.625 -13.65625 C 19.25 -10.882812 23 -9.5 27.875 -9.5 Z M 27.875 -9.5 "/></g></g></g><g fill="#00857b" fill-opacity="1"><g transform="translate(202.558076, 49.20385)"><g><path d="M 5.296875 -3.546875 C 2.617188 -6.472656 1.28125 -10.054688 1.28125 -14.296875 C 1.28125 -18.546875 2.617188 -22.140625 5.296875 -25.078125 C 7.984375 -28.023438 11.394531 -29.5 15.53125 -29.5 C 19.332031 -29.5 22.460938 -28.304688 24.921875 -25.921875 L 24.921875 -28.65625 L 34.8125 -28.65625 L 34.8125 0 L 25.03125 0 L 25.03125 -3.234375 L 24.921875 -3.234375 C 22.460938 -0.515625 19.332031 0.84375 15.53125 0.84375 C 11.394531 0.84375 7.984375 -0.617188 5.296875 -3.546875 Z M 13.71875 -19.15625 C 12.4375 -17.894531 11.796875 -16.273438 11.796875 -14.296875 C 11.796875 -12.328125 12.410156 -10.71875 13.640625 -9.46875 C 14.867188 -8.21875 16.488281 -7.59375 18.5 -7.59375 C 20.4375 -7.59375 22.023438 -8.226562 23.265625 -9.5 C 24.515625 -10.769531 25.140625 -12.367188 25.140625 -14.296875 C 25.140625 -16.273438 24.492188 -17.894531 23.203125 -19.15625 C 21.921875 -20.425781 20.351562 -21.0625 18.5 -21.0625 C 16.59375 -21.0625 15 -20.425781 13.71875 -19.15625 Z M 13.71875 -19.15625 "/></g></g></g><g fill="#00857b" fill-opacity="1"><g transform="translate(238.809735, 49.20385)"><g><path d="M 3.359375 0 L 3.359375 -28.65625 L 13.25 -28.65625 L 13.25 -24.53125 L 13.359375 -24.53125 C 13.429688 -24.675781 13.550781 -24.859375 13.71875 -25.078125 C 13.882812 -25.304688 14.242188 -25.695312 14.796875 -26.25 C 15.359375 -26.8125 15.957031 -27.316406 16.59375 -27.765625 C 17.226562 -28.210938 18.046875 -28.613281 19.046875 -28.96875 C 20.054688 -29.320312 21.082031 -29.5 22.125 -29.5 C 23.207031 -29.5 24.269531 -29.347656 25.3125 -29.046875 C 26.351562 -28.753906 27.117188 -28.457031 27.609375 -28.15625 L 28.390625 -27.71875 L 24.25 -19.328125 C 23.019531 -20.367188 21.304688 -20.890625 19.109375 -20.890625 C 17.921875 -20.890625 16.894531 -20.628906 16.03125 -20.109375 C 15.175781 -19.585938 14.570312 -18.953125 14.21875 -18.203125 C 13.863281 -17.460938 13.613281 -16.832031 13.46875 -16.3125 C 13.320312 -15.789062 13.25 -15.382812 13.25 -15.09375 L 13.25 0 Z M 3.359375 0 "/></g></g></g><g fill="#00857b" fill-opacity="1"><g transform="translate(264.727589, 49.20385)"><g><path d="M 32.359375 -12.96875 L 11.5625 -12.96875 C 11.5625 -10.957031 12.210938 -9.46875 13.515625 -8.5 C 14.828125 -7.53125 16.242188 -7.046875 17.765625 -7.046875 C 19.367188 -7.046875 20.632812 -7.257812 21.5625 -7.6875 C 22.5 -8.113281 23.5625 -8.957031 24.75 -10.21875 L 31.90625 -6.65625 C 28.925781 -1.65625 23.972656 0.84375 17.046875 0.84375 C 12.722656 0.84375 9.015625 -0.632812 5.921875 -3.59375 C 2.828125 -6.5625 1.28125 -10.128906 1.28125 -14.296875 C 1.28125 -18.472656 2.828125 -22.050781 5.921875 -25.03125 C 9.015625 -28.007812 12.722656 -29.5 17.046875 -29.5 C 21.585938 -29.5 25.28125 -28.1875 28.125 -25.5625 C 30.976562 -22.9375 32.40625 -19.179688 32.40625 -14.296875 C 32.40625 -13.628906 32.390625 -13.1875 32.359375 -12.96875 Z M 11.84375 -18.4375 L 22.734375 -18.4375 C 22.515625 -19.925781 21.929688 -21.070312 20.984375 -21.875 C 20.035156 -22.675781 18.816406 -23.078125 17.328125 -23.078125 C 15.679688 -23.078125 14.375 -22.644531 13.40625 -21.78125 C 12.4375 -20.925781 11.914062 -19.8125 11.84375 -18.4375 Z M 11.84375 -18.4375 "/></g></g></g></g></g></g><g clip-path="url(#8c905b692a)"><g transform="matrix(1, 0, 0, 1, 34, 328)"><g clip-path="url(#ae50f10502)"><g fill="#00857b" fill-opacity="1"><g transform="translate(0.913357, 18.04429)"><g><path d="M 6.734375 0.234375 C 5.566406 0.234375 4.523438 -0.0195312 3.609375 -0.53125 C 2.703125 -1.039062 1.988281 -1.742188 1.46875 -2.640625 C 0.957031 -3.546875 0.703125 -4.582031 0.703125 -5.75 C 0.703125 -6.925781 0.957031 -7.960938 1.46875 -8.859375 C 1.976562 -9.753906 2.6875 -10.457031 3.59375 -10.96875 C 4.5 -11.476562 5.53125 -11.734375 6.6875 -11.734375 C 7.625 -11.734375 8.484375 -11.566406 9.265625 -11.234375 C 10.054688 -10.910156 10.726562 -10.445312 11.28125 -9.84375 C 11.832031 -9.25 12.222656 -8.546875 12.453125 -7.734375 L 9.65625 -7.734375 C 9.375 -8.242188 8.976562 -8.640625 8.46875 -8.921875 C 7.957031 -9.203125 7.378906 -9.34375 6.734375 -9.34375 C 6.066406 -9.34375 5.472656 -9.1875 4.953125 -8.875 C 4.441406 -8.570312 4.039062 -8.148438 3.75 -7.609375 C 3.46875 -7.078125 3.328125 -6.457031 3.328125 -5.75 C 3.328125 -5.0625 3.46875 -4.445312 3.75 -3.90625 C 4.03125 -3.375 4.425781 -2.953125 4.9375 -2.640625 C 5.457031 -2.328125 6.066406 -2.171875 6.765625 -2.171875 C 7.609375 -2.171875 8.3125 -2.382812 8.875 -2.8125 C 9.4375 -3.238281 9.800781 -3.800781 9.96875 -4.5 L 6.234375 -4.5 L 6.234375 -6.53125 L 12.71875 -6.53125 C 12.789062 -5.539062 12.695312 -4.632812 12.4375 -3.8125 C 12.175781 -2.988281 11.78125 -2.269531 11.25 -1.65625 C 10.71875 -1.050781 10.070312 -0.582031 9.3125 -0.25 C 8.550781 0.0703125 7.691406 0.234375 6.734375 0.234375 Z M 6.734375 0.234375 "/></g></g></g><g fill="#00857b" fill-opacity="1"><g transform="translate(17.618215, 18.04429)"><g><path d="M 1.375 0 L 1.375 -11.5 L 8.9375 -11.5 L 8.9375 -9.296875 L 3.984375 -9.296875 L 3.984375 -6.921875 L 8.5 -6.921875 L 8.5 -4.734375 L 3.984375 -4.734375 L 3.984375 -2.21875 L 9.125 -2.21875 L 9.125 0 Z M 1.375 0 "/></g></g></g><g fill="#00857b" fill-opacity="1"><g transform="translate(30.874367, 18.04429)"><g><path d="M 1.375 0 L 1.375 -11.5 L 3.59375 -11.5 L 8.671875 -4.5 L 8.671875 -11.5 L 11.28125 -11.5 L 11.28125 0 L 9.0625 0 L 3.984375 -7.046875 L 3.984375 0 Z M 1.375 0 "/></g></g></g><g fill="#00857b" fill-opacity="1"><g transform="translate(46.823786, 18.04429)"><g><path d="M 1.375 0 L 1.375 -11.5 L 8.9375 -11.5 L 8.9375 -9.296875 L 3.984375 -9.296875 L 3.984375 -6.921875 L 8.5 -6.921875 L 8.5 -4.734375 L 3.984375 -4.734375 L 3.984375 -2.21875 L 9.125 -2.21875 L 9.125 0 Z M 1.375 0 "/></g></g></g><g fill="#00857b" fill-opacity="1"><g transform="translate(60.079938, 18.04429)"><g><path d="M 1.375 0 L 1.375 -11.5 L 6.296875 -11.5 C 7.171875 -11.5 7.929688 -11.335938 8.578125 -11.015625 C 9.222656 -10.703125 9.722656 -10.25 10.078125 -9.65625 C 10.429688 -9.070312 10.609375 -8.367188 10.609375 -7.546875 C 10.609375 -6.703125 10.414062 -5.972656 10.03125 -5.359375 C 9.644531 -4.753906 9.109375 -4.300781 8.421875 -4 L 10.796875 0 L 7.78125 0 L 5.71875 -3.578125 L 4 -3.578125 L 4 0 Z M 3.96875 -5.78125 L 5.953125 -5.78125 C 6.597656 -5.78125 7.09375 -5.929688 7.4375 -6.234375 C 7.78125 -6.535156 7.953125 -6.96875 7.953125 -7.53125 C 7.953125 -8.082031 7.78125 -8.507812 7.4375 -8.8125 C 7.09375 -9.113281 6.597656 -9.265625 5.953125 -9.265625 L 3.96875 -9.265625 Z M 3.96875 -5.78125 "/></g></g></g><g fill="#00857b" fill-opacity="1"><g transform="translate(74.945486, 18.04429)"><g><path d="M 0.140625 0 L 4.71875 -11.5 L 7.28125 -11.5 L 11.84375 0 L 9.0625 0 L 8.28125 -1.984375 L 3.71875 -1.984375 L 2.9375 0 Z M 4.390625 -4.046875 L 7.625 -4.046875 L 6 -8.25 Z M 4.390625 -4.046875 "/></g></g></g><g fill="#00857b" fill-opacity="1"><g transform="translate(90.238011, 18.04429)"><g><path d="M 1.375 0 L 1.375 -11.5 L 4 -11.5 L 4 -2.453125 L 9.03125 -2.453125 L 9.03125 0 Z M 1.375 0 "/></g></g></g><g fill="#00857b" fill-opacity="1"><g transform="translate(110.164939, 18.04429)"><g><path d="M 8.5 0 L 8.5 -4.640625 L 4 -4.640625 L 4 0 L 1.375 0 L 1.375 -11.5 L 4 -11.5 L 4 -7.078125 L 8.5 -7.078125 L 8.5 -11.5 L 11.109375 -11.5 L 11.109375 0 Z M 8.5 0 "/></g></g></g><g fill="#00857b" fill-opacity="1"><g transform="translate(125.950135, 18.04429)"><g><path d="M 6.84375 0.234375 C 5.644531 0.234375 4.582031 -0.0195312 3.65625 -0.53125 C 2.726562 -1.039062 2.003906 -1.742188 1.484375 -2.640625 C 0.960938 -3.546875 0.703125 -4.582031 0.703125 -5.75 C 0.703125 -6.925781 0.960938 -7.960938 1.484375 -8.859375 C 2.003906 -9.753906 2.726562 -10.457031 3.65625 -10.96875 C 4.582031 -11.476562 5.644531 -11.734375 6.84375 -11.734375 C 8.039062 -11.734375 9.097656 -11.476562 10.015625 -10.96875 C 10.941406 -10.457031 11.664062 -9.753906 12.1875 -8.859375 C 12.71875 -7.960938 12.984375 -6.925781 12.984375 -5.75 C 12.984375 -4.582031 12.71875 -3.546875 12.1875 -2.640625 C 11.664062 -1.742188 10.941406 -1.039062 10.015625 -0.53125 C 9.097656 -0.0195312 8.039062 0.234375 6.84375 0.234375 Z M 3.375 -5.75 C 3.375 -5.0625 3.519531 -4.453125 3.8125 -3.921875 C 4.101562 -3.398438 4.507812 -2.988281 5.03125 -2.6875 C 5.550781 -2.394531 6.15625 -2.25 6.84375 -2.25 C 7.53125 -2.25 8.132812 -2.394531 8.65625 -2.6875 C 9.175781 -2.988281 9.582031 -3.398438 9.875 -3.921875 C 10.164062 -4.453125 10.3125 -5.0625 10.3125 -5.75 C 10.3125 -6.4375 10.164062 -7.039062 9.875 -7.5625 C 9.582031 -8.09375 9.175781 -8.503906 8.65625 -8.796875 C 8.132812 -9.097656 7.53125 -9.25 6.84375 -9.25 C 6.15625 -9.25 5.550781 -9.097656 5.03125 -8.796875 C 4.507812 -8.503906 4.101562 -8.09375 3.8125 -7.5625 C 3.519531 -7.039062 3.375 -6.4375 3.375 -5.75 Z M 3.375 -5.75 "/></g></g></g><g fill="#00857b" fill-opacity="1"><g transform="translate(142.934174, 18.04429)"><g><path d="M 5.390625 0.234375 C 4.421875 0.234375 3.585938 0.078125 2.890625 -0.234375 C 2.203125 -0.554688 1.664062 -1.007812 1.28125 -1.59375 C 0.90625 -2.1875 0.71875 -2.878906 0.71875 -3.671875 L 3.28125 -3.671875 C 3.28125 -3.117188 3.46875 -2.6875 3.84375 -2.375 C 4.226562 -2.070312 4.738281 -1.921875 5.375 -1.921875 C 5.925781 -1.921875 6.359375 -2.023438 6.671875 -2.234375 C 6.992188 -2.453125 7.15625 -2.753906 7.15625 -3.140625 C 7.15625 -3.546875 6.960938 -3.875 6.578125 -4.125 C 6.191406 -4.375 5.59375 -4.585938 4.78125 -4.765625 C 3.4375 -5.046875 2.441406 -5.476562 1.796875 -6.0625 C 1.148438 -6.644531 0.828125 -7.398438 0.828125 -8.328125 C 0.828125 -9.378906 1.207031 -10.207031 1.96875 -10.8125 C 2.738281 -11.425781 3.785156 -11.734375 5.109375 -11.734375 C 6.015625 -11.734375 6.800781 -11.578125 7.46875 -11.265625 C 8.144531 -10.953125 8.664062 -10.515625 9.03125 -9.953125 C 9.394531 -9.390625 9.578125 -8.71875 9.578125 -7.9375 L 7.0625 -7.9375 C 7.0625 -8.457031 6.890625 -8.863281 6.546875 -9.15625 C 6.210938 -9.445312 5.742188 -9.59375 5.140625 -9.59375 C 4.597656 -9.59375 4.164062 -9.484375 3.84375 -9.265625 C 3.53125 -9.054688 3.375 -8.765625 3.375 -8.390625 C 3.375 -8.035156 3.546875 -7.738281 3.890625 -7.5 C 4.242188 -7.257812 4.859375 -7.035156 5.734375 -6.828125 C 7.171875 -6.484375 8.207031 -6.023438 8.84375 -5.453125 C 9.476562 -4.890625 9.796875 -4.148438 9.796875 -3.234375 C 9.796875 -2.148438 9.40625 -1.300781 8.625 -0.6875 C 7.84375 -0.0703125 6.765625 0.234375 5.390625 0.234375 Z M 5.390625 0.234375 "/></g></g></g><g fill="#00857b" fill-opacity="1"><g transform="translate(156.765115, 18.04429)"><g><path d="M 1.375 0 L 1.375 -11.5 L 5.890625 -11.5 C 6.816406 -11.5 7.617188 -11.328125 8.296875 -10.984375 C 8.972656 -10.648438 9.5 -10.171875 9.875 -9.546875 C 10.257812 -8.921875 10.453125 -8.1875 10.453125 -7.34375 C 10.453125 -6.507812 10.257812 -5.78125 9.875 -5.15625 C 9.5 -4.53125 8.972656 -4.046875 8.296875 -3.703125 C 7.617188 -3.367188 6.816406 -3.203125 5.890625 -3.203125 L 4 -3.203125 L 4 0 Z M 3.984375 -5.453125 L 5.671875 -5.453125 C 6.347656 -5.453125 6.867188 -5.613281 7.234375 -5.9375 C 7.609375 -6.257812 7.796875 -6.722656 7.796875 -7.328125 C 7.796875 -7.929688 7.609375 -8.394531 7.234375 -8.71875 C 6.867188 -9.050781 6.347656 -9.21875 5.671875 -9.21875 L 3.984375 -9.21875 Z M 3.984375 -5.453125 "/></g></g></g><g fill="#00857b" fill-opacity="1"><g transform="translate(170.990195, 18.04429)"><g><path d="M 1.375 0 L 1.375 -11.5 L 4 -11.5 L 4 0 Z M 1.375 0 "/></g></g></g><g fill="#00857b" fill-opacity="1"><g transform="translate(179.664505, 18.04429)"><g><path d="M 4.140625 0 L 4.140625 -9.0625 L 0.5 -9.0625 L 0.5 -11.5 L 10.40625 -11.5 L 10.40625 -9.0625 L 6.75 -9.0625 L 6.75 0 Z M 4.140625 0 "/></g></g></g><g fill="#00857b" fill-opacity="1"><g transform="translate(193.856732, 18.04429)"><g><path d="M 0.140625 0 L 4.71875 -11.5 L 7.28125 -11.5 L 11.84375 0 L 9.0625 0 L 8.28125 -1.984375 L 3.71875 -1.984375 L 2.9375 0 Z M 4.390625 -4.046875 L 7.625 -4.046875 L 6 -8.25 Z M 4.390625 -4.046875 "/></g></g></g><g fill="#00857b" fill-opacity="1"><g transform="translate(209.149258, 18.04429)"><g><path d="M 1.375 0 L 1.375 -11.5 L 4 -11.5 L 4 -2.453125 L 9.03125 -2.453125 L 9.03125 0 Z M 1.375 0 "/></g></g></g></g></g></g><g clip-path="url(#2d4b65ea79)"><g clip-path="url(#837cd7e88d)"><g transform="matrix(1, 0, 0, 1, 18, 0)"><g clip-path="url(#3f1f697e6f)"><g clip-path="url(#8df5aa1fcd)"><g clip-path="url(#98b660421e)"><path fill="#00bba8" d="M 0.488281 0.222656 L 254.15625 0.222656 L 254.15625 253.894531 L 0.488281 253.894531 Z M 0.488281 0.222656 " fill-opacity="1" fill-rule="nonzero"/></g></g></g></g></g></g><g clip-path="url(#f33f48e0bc)"><g clip-path="url(#8dafd92b3f)"><g transform="matrix(1, 0, 0, 1, 47, 63)"><g clip-path="url(#eaaa3d7cd1)"><g clip-path="url(#04deaab4f0)"><g clip-path="url(#d0b004a35e)"><path fill="#00857b" d="M 0.511719 0.0351562 L 196.417969 0.0351562 L 196.417969 171.203125 L 0.511719 171.203125 Z M 0.511719 0.0351562 " fill-opacity="1" fill-rule="nonzero"/></g></g></g></g></g></g><g clip-path="url(#e9a424a24a)"><g clip-path="url(#a2ad002c52)"><g clip-path="url(#61c7d7590a)"><path fill="#ffffff" d="M 38.199219 196.003906 C 41.164062 192.660156 43.546875 188.710938 46.730469 185.542969 C 48.757812 183 50.796875 180.554688 53.125 178.320312 C 55.726562 175.632812 58.285156 172.433594 60.691406 169.363281 C 63.753906 165.421875 66.074219 160.859375 68.753906 156.625 C 71.65625 152.585938 74.488281 148.542969 77.210938 144.425781 C 79.261719 140.300781 81.980469 136.113281 81.519531 131.441406 C 81.871094 127.875 81.890625 124.226562 81.238281 120.804688 C 80.738281 116.207031 78.4375 112.210938 76.796875 107.855469 C 77.148438 104.890625 70.957031 102.558594 75.261719 100.28125 C 79.5625 100.449219 83.5625 103.398438 85.359375 107.167969 C 86.921875 110.140625 87.109375 114.542969 91.140625 115.628906 C 95.109375 115.535156 97.703125 111.890625 100.144531 109.371094 C 103.304688 105.105469 105.714844 100.269531 109.355469 96.394531 C 112.585938 93.792969 116.070312 86.765625 120.761719 90.507812 C 121.589844 94.515625 117.210938 98.179688 115.050781 101.375 C 114.113281 104.355469 107.210938 110.089844 111.269531 111.964844 C 115.429688 110.894531 117.1875 106.84375 121.21875 105.433594 C 124.375 102.707031 128.605469 101.015625 131.851562 98.351562 C 137.214844 95.789062 138.804688 103.832031 133.929688 105.019531 C 131.523438 106.695312 129.175781 108.546875 126.925781 110.367188 C 123.921875 113.207031 119.234375 115.359375 117.171875 118.441406 C 122.164062 118.289062 126.628906 114.664062 131.335938 112.839844 C 134.742188 111.660156 142.277344 106.273438 142.199219 113.261719 C 139.949219 117.332031 134.328125 117.8125 130.976562 120.824219 C 127.507812 123.167969 122.734375 124.355469 119.757812 127.117188 C 121.78125 129.964844 126.507812 127.507812 129.65625 127.703125 C 133.722656 128.460938 138.507812 124.539062 141.773438 127.960938 C 140.824219 134.386719 132.71875 132.691406 128.28125 134.613281 C 124.703125 135.3125 121.101562 135.648438 117.753906 137.476562 C 114.703125 139.425781 112.625 142.703125 109.835938 144.777344 C 107.007812 147.210938 103.144531 147.714844 100.265625 150.132812 C 96.96875 153.683594 94.671875 157.925781 92.171875 162.066406 C 88.21875 170.578125 82.558594 178.03125 78.230469 186.339844 C 75.578125 191.679688 71.898438 196.351562 69.136719 201.605469 C 66.089844 203.53125 65.210938 211.230469 60.675781 207.4375 C 53.199219 203.695312 45.445312 200.402344 38.242188 196.171875 L 38.199219 195.992188 Z M 38.199219 196.003906 " fill-opacity="1" fill-rule="nonzero"/></g></g></g><g clip-path="url(#6cc1c6da9e)"><g clip-path="url(#d6d1bf5ba2)"><g transform="matrix(1, 0, 0, 1, 137, 29)"><g clip-path="url(#9191ff58e7)"><g clip-path="url(#e4d70a579a)"><g clip-path="url(#55d28f1b33)"><g clip-path="url(#39457508e3)"><path fill="#ffffff" d="M 93.886719 7.566406 C 91.953125 11.59375 89.238281 15.324219 87.546875 19.484375 C 85.988281 22.339844 84.527344 25.167969 83.367188 28.179688 C 81.902344 31.617188 79.941406 35.21875 78.042969 38.625 C 75.597656 42.972656 72.289062 46.882812 69.429688 50.992188 C 66.828125 55.234375 64.199219 59.414062 61.457031 63.515625 C 58.453125 67.007812 55.644531 71.136719 51.160156 72.523438 C 48.007812 74.226562 44.652344 75.65625 41.246094 76.382812 C 36.8125 77.707031 32.238281 77.132812 27.585938 77.308594 C 24.988281 78.78125 20.4375 73.980469 20.003906 78.828125 C 21.832031 82.730469 26.097656 85.273438 30.269531 85.46875 C 33.617188 85.757812 37.746094 84.222656 40.308594 87.519531 C 41.761719 91.214844 39.40625 95.015625 38.027344 98.242188 C 35.320312 102.808594 31.796875 106.90625 29.636719 111.765625 C 28.492188 115.75 23.363281 121.6875 28.632812 124.5625 C 32.648438 123.769531 34.328125 118.316406 36.4375 115.085938 C 38.820312 113.066406 41.433594 104.480469 44.730469 107.496094 C 45.359375 111.746094 42.308594 114.933594 42.566406 119.199219 C 41.277344 123.160156 41.359375 127.71875 40.160156 131.746094 C 39.875 137.679688 47.90625 136.03125 47.113281 131.078125 C 47.722656 128.210938 48.523438 125.324219 49.328125 122.546875 C 50.78125 118.679688 50.949219 113.523438 52.992188 110.425781 C 54.785156 115.085938 53.171875 120.605469 53.316406 125.652344 C 53.546875 129.25 51.503906 138.285156 57.914062 135.503906 C 60.796875 131.851562 59.0625 126.484375 60.539062 122.230469 C 61.355469 118.125 60.597656 113.261719 61.988281 109.449219 C 65.402344 110.210938 64.964844 115.519531 66.367188 118.347656 C 68.644531 121.800781 66.882812 127.730469 71.300781 129.414062 C 76.855469 126.050781 72.152344 119.234375 72.207031 114.402344 C 71.460938 110.832031 70.375 107.382812 70.761719 103.585938 C 71.378906 100.015625 73.597656 96.832031 74.425781 93.453125 C 75.570312 89.90625 74.542969 86.148438 75.652344 82.558594 C 77.648438 78.140625 80.667969 74.382812 83.515625 70.472656 C 89.832031 63.53125 94.507812 55.425781 100.488281 48.214844 C 104.386719 43.699219 107.269531 38.496094 111.039062 33.914062 C 111.636719 30.359375 118.390625 26.566406 113.136719 23.851562 C 106.789062 18.410156 100.75 12.539062 94.058594 7.542969 L 93.875 7.570312 Z M 93.886719 7.566406 " fill-opacity="1" fill-rule="nonzero"/></g></g></g></g></g></g></g></g></g></svg>