<svg xmlns="http://www.w3.org/2000/svg" xmlns:xlink="http://www.w3.org/1999/xlink" width="500" zoomAndPan="magnify" viewBox="0 0 375 374.999991" height="500" preserveAspectRatio="xMidYMid meet" version="1.0"><defs><g/><clipPath id="2eb31176e5"><path d="M 1.023438 0.78125 L 210.449219 0.78125 L 210.449219 210.207031 L 1.023438 210.207031 Z M 1.023438 0.78125 " clip-rule="nonzero"/></clipPath><clipPath id="c6c27e6b13"><path d="M 137.503906 0.78125 L 73.96875 0.78125 C 71.980469 0.78125 70.070312 1.574219 68.664062 2.980469 C 67.257812 4.386719 66.46875 6.292969 66.46875 8.28125 L 66.46875 58.726562 C 66.46875 60.714844 65.679688 62.625 64.273438 64.03125 C 62.863281 65.4375 60.957031 66.226562 58.96875 66.226562 L 8.523438 66.226562 C 6.535156 66.226562 4.625 67.019531 3.21875 68.425781 C 1.8125 69.832031 1.023438 71.738281 1.023438 73.726562 L 1.023438 137.261719 C 1.023438 139.25 1.8125 141.160156 3.21875 142.566406 C 4.625 143.972656 6.535156 144.761719 8.523438 144.761719 L 58.96875 144.761719 C 60.957031 144.761719 62.863281 145.550781 64.273438 146.957031 C 65.679688 148.363281 66.46875 150.273438 66.46875 152.261719 L 66.46875 202.707031 C 66.46875 204.695312 67.257812 206.605469 68.664062 208.011719 C 70.070312 209.417969 71.980469 210.207031 73.96875 210.207031 L 137.503906 210.207031 C 139.492188 210.207031 141.398438 209.417969 142.804688 208.011719 C 144.210938 206.605469 145.003906 204.695312 145.003906 202.707031 L 145.003906 152.261719 C 145.003906 150.273438 145.792969 148.363281 147.199219 146.957031 C 148.605469 145.550781 150.511719 144.761719 152.503906 144.761719 L 202.949219 144.761719 C 204.9375 144.761719 206.84375 143.972656 208.25 142.566406 C 209.65625 141.160156 210.449219 139.25 210.449219 137.261719 L 210.449219 73.726562 C 210.449219 71.738281 209.65625 69.832031 208.25 68.425781 C 206.84375 67.019531 204.9375 66.226562 202.949219 66.226562 L 152.503906 66.226562 C 150.511719 66.226562 148.605469 65.4375 147.199219 64.03125 C 145.792969 62.625 145.003906 60.714844 145.003906 58.726562 L 145.003906 8.28125 C 145.003906 6.292969 144.210938 4.386719 142.804688 2.980469 C 141.398438 1.574219 139.492188 0.78125 137.503906 0.78125 Z M 137.503906 0.78125 " clip-rule="nonzero"/></clipPath><clipPath id="35b461f6ab"><path d="M 0.0234375 0.78125 L 209.449219 0.78125 L 209.449219 210.207031 L 0.0234375 210.207031 Z M 0.0234375 0.78125 " clip-rule="nonzero"/></clipPath><clipPath id="a0bbedded1"><path d="M 136.503906 0.78125 L 72.96875 0.78125 C 70.980469 0.78125 69.070312 1.574219 67.664062 2.980469 C 66.257812 4.386719 65.46875 6.292969 65.46875 8.28125 L 65.46875 58.726562 C 65.46875 60.714844 64.679688 62.625 63.273438 64.03125 C 61.863281 65.4375 59.957031 66.226562 57.96875 66.226562 L 7.523438 66.226562 C 5.535156 66.226562 3.625 67.019531 2.21875 68.425781 C 0.8125 69.832031 0.0234375 71.738281 0.0234375 73.726562 L 0.0234375 137.261719 C 0.0234375 139.25 0.8125 141.160156 2.21875 142.566406 C 3.625 143.972656 5.535156 144.761719 7.523438 144.761719 L 57.96875 144.761719 C 59.957031 144.761719 61.863281 145.550781 63.273438 146.957031 C 64.679688 148.363281 65.46875 150.273438 65.46875 152.261719 L 65.46875 202.707031 C 65.46875 204.695312 66.257812 206.605469 67.664062 208.011719 C 69.070312 209.417969 70.980469 210.207031 72.96875 210.207031 L 136.503906 210.207031 C 138.492188 210.207031 140.398438 209.417969 141.804688 208.011719 C 143.210938 206.605469 144.003906 204.695312 144.003906 202.707031 L 144.003906 152.261719 C 144.003906 150.273438 144.792969 148.363281 146.199219 146.957031 C 147.605469 145.550781 149.511719 144.761719 151.503906 144.761719 L 201.949219 144.761719 C 203.9375 144.761719 205.84375 143.972656 207.25 142.566406 C 208.65625 141.160156 209.449219 139.25 209.449219 137.261719 L 209.449219 73.726562 C 209.449219 71.738281 208.65625 69.832031 207.25 68.425781 C 205.84375 67.019531 203.9375 66.226562 201.949219 66.226562 L 151.503906 66.226562 C 149.511719 66.226562 147.605469 65.4375 146.199219 64.03125 C 144.792969 62.625 144.003906 60.714844 144.003906 58.726562 L 144.003906 8.28125 C 144.003906 6.292969 143.210938 4.386719 141.804688 2.980469 C 140.398438 1.574219 138.492188 0.78125 136.503906 0.78125 Z M 136.503906 0.78125 " clip-rule="nonzero"/></clipPath><clipPath id="da0c170a73"><rect x="0" width="210" y="0" height="211"/></clipPath><clipPath id="8d742eb65a"><path d="M 24.984375 52.085938 L 186.722656 52.085938 L 186.722656 189.535156 L 24.984375 189.535156 Z M 24.984375 52.085938 " clip-rule="nonzero"/></clipPath><clipPath id="d1426953e5"><path d="M 31.386719 75.199219 C 18.292969 96.773438 27.519531 117.773438 39.113281 128.917969 L 98.777344 186.160156 C 103.304688 190.503906 110.457031 190.472656 114.945312 186.089844 L 173.25 129.148438 C 184.035156 117.160156 188.167969 104.445312 185.871094 90.285156 C 182.699219 70.695312 166.558594 55.5 146.617188 53.328125 C 134.390625 52.011719 122.574219 55.472656 113.355469 63.132812 C 110.875 65.195312 108.65625 67.5 106.722656 70.007812 C 104.429688 67.152344 101.738281 64.542969 98.695312 62.230469 C 88.09375 54.175781 74.597656 50.976562 61.632812 53.464844 C 49.355469 55.835938 38.332031 63.753906 31.386719 75.199219 Z M 31.386719 75.199219 " clip-rule="nonzero"/></clipPath><clipPath id="9b45840b79"><path d="M 0.984375 0.558594 L 162.722656 0.558594 L 162.722656 137.535156 L 0.984375 137.535156 Z M 0.984375 0.558594 " clip-rule="nonzero"/></clipPath><clipPath id="ac35f5475d"><path d="M 7.386719 23.199219 C -5.707031 44.773438 3.519531 65.773438 15.113281 76.917969 L 74.777344 134.160156 C 79.304688 138.503906 86.457031 138.472656 90.945312 134.089844 L 149.25 77.148438 C 160.035156 65.160156 164.167969 52.445312 161.871094 38.285156 C 158.699219 18.695312 142.558594 3.5 122.617188 1.328125 C 110.390625 0.0117188 98.574219 3.472656 89.355469 11.132812 C 86.875 13.195312 84.65625 15.5 82.722656 18.007812 C 80.429688 15.152344 77.738281 12.542969 74.695312 10.230469 C 64.09375 2.175781 50.597656 -1.023438 37.632812 1.464844 C 25.355469 3.835938 14.332031 11.753906 7.386719 23.199219 Z M 7.386719 23.199219 " clip-rule="nonzero"/></clipPath><clipPath id="73311085fd"><rect x="0" width="163" y="0" height="138"/></clipPath><clipPath id="f27dbecf26"><path d="M 17 74 L 104 74 L 104 173 L 17 173 Z M 17 74 " clip-rule="nonzero"/></clipPath><clipPath id="c055747cdf"><path d="M 56.957031 59.144531 L 113.980469 86.96875 L 65.136719 187.078125 L 8.113281 159.257812 Z M 56.957031 59.144531 " clip-rule="nonzero"/></clipPath><clipPath id="d144440699"><path d="M 56.957031 59.144531 L 113.980469 86.96875 L 65.136719 187.078125 L 8.113281 159.257812 Z M 56.957031 59.144531 " clip-rule="nonzero"/></clipPath><clipPath id="9409443cbc"><path d="M 98 24 L 216.71875 24 L 216.71875 148 L 98 148 Z M 98 24 " clip-rule="nonzero"/></clipPath><clipPath id="f005527308"><path d="M 144.398438 149.234375 L 96.648438 107.449219 L 170.007812 23.625 L 217.753906 65.410156 Z M 144.398438 149.234375 " clip-rule="nonzero"/></clipPath><clipPath id="43158c5e48"><path d="M 17 6 L 96 6 L 96 113 L 17 113 Z M 17 6 " clip-rule="nonzero"/></clipPath><clipPath id="e0a6ffbea4"><path d="M 46.398438 125.234375 L -1.351562 83.449219 L 72.007812 -0.375 L 119.753906 41.410156 Z M 46.398438 125.234375 " clip-rule="nonzero"/></clipPath><clipPath id="246be30e75"><path d="M -1.449219 83.363281 L 46.296875 125.148438 L 119.65625 41.324219 L 71.90625 -0.460938 Z M -1.449219 83.363281 " clip-rule="nonzero"/></clipPath><clipPath id="4e2029e461"><rect x="0" width="119" y="0" height="124"/></clipPath><clipPath id="d02b1841b4"><rect x="0" width="217" y="0" height="211"/></clipPath><clipPath id="f7ad503749"><rect x="0" width="247" y="0" height="58"/></clipPath></defs><g transform="matrix(1, 0, 0, 1, 78, 48)"><g clip-path="url(#d02b1841b4)"><g clip-path="url(#2eb31176e5)"><g clip-path="url(#c6c27e6b13)"><g transform="matrix(1, 0, 0, 1, 1, 0)"><g clip-path="url(#da0c170a73)"><g clip-path="url(#35b461f6ab)"><g clip-path="url(#a0bbedded1)"><path fill="#00bba8" d="M 0.0234375 0.78125 L 209.449219 0.78125 L 209.449219 210.207031 L 0.0234375 210.207031 Z M 0.0234375 0.78125 " fill-opacity="1" fill-rule="nonzero"/></g></g></g></g></g></g><g clip-path="url(#8d742eb65a)"><g clip-path="url(#d1426953e5)"><g transform="matrix(1, 0, 0, 1, 24, 52)"><g clip-path="url(#73311085fd)"><g clip-path="url(#9b45840b79)"><g clip-path="url(#ac35f5475d)"><path fill="#2882ff" d="M 0.984375 0.636719 L 162.722656 0.636719 L 162.722656 141.949219 L 0.984375 141.949219 Z M 0.984375 0.636719 " fill-opacity="1" fill-rule="nonzero"/></g></g></g></g></g></g><g clip-path="url(#f27dbecf26)"><g clip-path="url(#c055747cdf)"><g clip-path="url(#d144440699)"><path fill="#ffffff" d="M 17.300781 162.410156 C 19.746094 159.648438 21.714844 156.390625 24.339844 153.773438 C 26.015625 151.671875 27.699219 149.65625 29.621094 147.8125 C 31.769531 145.59375 33.882812 142.953125 35.871094 140.414062 C 38.394531 137.164062 40.3125 133.394531 42.523438 129.902344 C 44.921875 126.566406 47.257812 123.226562 49.503906 119.832031 C 51.199219 116.425781 53.445312 112.964844 53.0625 109.113281 C 53.351562 106.167969 53.367188 103.15625 52.832031 100.332031 C 52.417969 96.535156 50.519531 93.234375 49.164062 89.640625 C 49.453125 87.191406 44.34375 85.265625 47.894531 83.386719 C 51.449219 83.527344 54.75 85.957031 56.234375 89.074219 C 57.523438 91.527344 57.675781 95.160156 61.007812 96.054688 C 64.28125 95.980469 66.421875 92.972656 68.4375 90.890625 C 71.046875 87.367188 73.035156 83.375 76.042969 80.179688 C 78.710938 78.03125 81.585938 72.230469 85.460938 75.320312 C 86.140625 78.628906 82.527344 81.652344 80.746094 84.289062 C 79.972656 86.75 74.273438 91.484375 77.621094 93.03125 C 81.058594 92.148438 82.507812 88.804688 85.835938 87.640625 C 88.441406 85.390625 91.933594 83.992188 94.613281 81.792969 C 99.039062 79.679688 100.355469 86.316406 96.332031 87.296875 C 94.34375 88.679688 92.40625 90.210938 90.546875 91.714844 C 88.070312 94.058594 84.199219 95.835938 82.496094 98.378906 C 86.613281 98.253906 90.300781 95.257812 94.1875 93.753906 C 97 92.78125 103.21875 88.335938 103.15625 94.101562 C 101.296875 97.464844 96.65625 97.859375 93.890625 100.347656 C 91.027344 102.28125 87.089844 103.261719 84.628906 105.539062 C 86.300781 107.894531 90.203125 105.863281 92.800781 106.023438 C 96.160156 106.652344 100.109375 103.414062 102.804688 106.238281 C 102.019531 111.542969 95.328125 110.140625 91.667969 111.730469 C 88.714844 112.304688 85.742188 112.582031 82.976562 114.09375 C 80.457031 115.703125 78.742188 118.410156 76.4375 120.121094 C 74.105469 122.128906 70.914062 122.546875 68.539062 124.542969 C 65.816406 127.472656 63.917969 130.976562 61.855469 134.390625 C 58.59375 141.417969 53.921875 147.570312 50.347656 154.429688 C 48.15625 158.839844 45.121094 162.699219 42.839844 167.03125 C 40.324219 168.625 39.597656 174.980469 35.855469 171.847656 C 29.679688 168.761719 23.28125 166.042969 17.335938 162.546875 L 17.300781 162.402344 Z M 17.300781 162.410156 " fill-opacity="1" fill-rule="nonzero"/></g></g></g><g clip-path="url(#9409443cbc)"><g clip-path="url(#f005527308)"><g transform="matrix(1, 0, 0, 1, 98, 24)"><g clip-path="url(#4e2029e461)"><g clip-path="url(#43158c5e48)"><g clip-path="url(#e0a6ffbea4)"><g clip-path="url(#246be30e75)"><path fill="#ffffff" d="M 78.375 6.785156 C 76.78125 10.113281 74.539062 13.1875 73.144531 16.625 C 71.855469 18.980469 70.648438 21.316406 69.691406 23.800781 C 68.480469 26.640625 66.863281 29.613281 65.296875 32.425781 C 63.277344 36.015625 60.546875 39.246094 58.183594 42.636719 C 56.035156 46.136719 53.867188 49.589844 51.605469 52.976562 C 49.121094 55.855469 46.804688 59.265625 43.101562 60.410156 C 40.5 61.816406 37.730469 63 34.917969 63.597656 C 31.257812 64.6875 27.480469 64.214844 23.640625 64.359375 C 21.496094 65.578125 17.742188 61.613281 17.382812 65.617188 C 18.890625 68.835938 22.414062 70.9375 25.859375 71.097656 C 28.621094 71.335938 32.027344 70.070312 34.144531 72.792969 C 35.34375 75.839844 33.402344 78.980469 32.261719 81.644531 C 30.027344 85.414062 27.117188 88.792969 25.335938 92.808594 C 24.390625 96.097656 20.15625 100.996094 24.507812 103.371094 C 27.820312 102.714844 29.207031 98.214844 30.949219 95.546875 C 32.914062 93.882812 35.070312 86.792969 37.796875 89.28125 C 38.316406 92.789062 35.792969 95.421875 36.011719 98.941406 C 34.945312 102.214844 35.011719 105.976562 34.019531 109.300781 C 33.789062 114.199219 40.417969 112.839844 39.761719 108.75 C 40.265625 106.382812 40.925781 104 41.589844 101.707031 C 42.789062 98.515625 42.929688 94.257812 44.617188 91.699219 C 46.09375 95.546875 44.765625 100.105469 44.882812 104.273438 C 45.074219 107.242188 43.386719 114.699219 48.679688 112.402344 C 51.058594 109.386719 49.625 104.957031 50.84375 101.445312 C 51.519531 98.054688 50.894531 94.042969 52.042969 90.894531 C 54.859375 91.523438 54.5 95.90625 55.65625 98.238281 C 57.539062 101.089844 56.082031 105.984375 59.730469 107.378906 C 64.316406 104.597656 60.433594 98.972656 60.476562 94.980469 C 59.863281 92.035156 58.96875 89.1875 59.285156 86.054688 C 59.796875 83.105469 61.625 80.476562 62.3125 77.691406 C 63.257812 74.761719 62.40625 71.660156 63.324219 68.695312 C 64.972656 65.050781 67.464844 61.945312 69.816406 58.71875 C 75.027344 52.988281 78.890625 46.292969 83.828125 40.34375 C 87.042969 36.613281 89.421875 32.320312 92.535156 28.539062 C 93.027344 25.601562 98.605469 22.472656 94.265625 20.230469 C 89.027344 15.738281 84.042969 10.890625 78.519531 6.765625 L 78.367188 6.789062 Z M 78.375 6.785156 " fill-opacity="1" fill-rule="nonzero"/></g></g></g></g></g></g></g></g></g><g transform="matrix(1, 0, 0, 1, 64, 266)"><g clip-path="url(#f7ad503749)"><g fill="#2882ff" fill-opacity="1"><g transform="translate(1.14754, 40.789548)"><g><path d="M 2.765625 -37.96875 L 16.609375 -37.96875 C 20.472656 -37.96875 23.601562 -36.96875 26 -34.96875 C 28.394531 -32.976562 29.59375 -30.078125 29.59375 -26.265625 C 29.59375 -22.460938 28.378906 -19.476562 25.953125 -17.3125 C 23.523438 -15.15625 20.410156 -14.078125 16.609375 -14.078125 L 11.40625 -14.078125 L 11.40625 0 L 2.765625 0 Z M 11.40625 -20.984375 L 13.84375 -20.984375 C 15.78125 -20.984375 17.367188 -21.375 18.609375 -22.15625 C 19.859375 -22.9375 20.484375 -24.21875 20.484375 -26 C 20.484375 -27.8125 19.859375 -29.109375 18.609375 -29.890625 C 17.367188 -30.671875 15.78125 -31.0625 13.84375 -31.0625 L 11.40625 -31.0625 Z M 11.40625 -20.984375 "/></g></g></g><g fill="#2882ff" fill-opacity="1"><g transform="translate(30.218122, 40.789548)"><g><path d="M 2.765625 0 L 2.765625 -23.609375 L 10.90625 -23.609375 L 10.90625 -20.203125 L 11 -20.203125 C 11.0625 -20.328125 11.160156 -20.476562 11.296875 -20.65625 C 11.429688 -20.84375 11.726562 -21.164062 12.1875 -21.625 C 12.65625 -22.082031 13.148438 -22.492188 13.671875 -22.859375 C 14.191406 -23.234375 14.863281 -23.566406 15.6875 -23.859375 C 16.519531 -24.148438 17.363281 -24.296875 18.21875 -24.296875 C 19.113281 -24.296875 19.988281 -24.171875 20.84375 -23.921875 C 21.707031 -23.679688 22.335938 -23.4375 22.734375 -23.1875 L 23.375 -22.828125 L 19.96875 -15.921875 C 18.957031 -16.773438 17.546875 -17.203125 15.734375 -17.203125 C 14.753906 -17.203125 13.910156 -16.988281 13.203125 -16.5625 C 12.492188 -16.132812 11.992188 -15.613281 11.703125 -15 C 11.421875 -14.382812 11.21875 -13.863281 11.09375 -13.4375 C 10.96875 -13.007812 10.90625 -12.671875 10.90625 -12.421875 L 10.90625 0 Z M 2.765625 0 "/></g></g></g><g fill="#2882ff" fill-opacity="1"><g transform="translate(51.560976, 40.789548)"><g><path d="M 3.53125 -36.765625 C 4.488281 -37.710938 5.625 -38.1875 6.9375 -38.1875 C 8.257812 -38.1875 9.394531 -37.710938 10.34375 -36.765625 C 11.300781 -35.816406 11.78125 -34.679688 11.78125 -33.359375 C 11.78125 -32.035156 11.300781 -30.898438 10.34375 -29.953125 C 9.394531 -29.003906 8.257812 -28.53125 6.9375 -28.53125 C 5.625 -28.53125 4.488281 -29.003906 3.53125 -29.953125 C 2.582031 -30.898438 2.109375 -32.035156 2.109375 -33.359375 C 2.109375 -34.679688 2.582031 -35.816406 3.53125 -36.765625 Z M 2.765625 -23.609375 L 2.765625 0 L 10.90625 0 L 10.90625 -23.609375 Z M 2.765625 -23.609375 "/></g></g></g><g fill="#2882ff" fill-opacity="1"><g transform="translate(63.888153, 40.789548)"><g><path d="M 2.765625 0 L 2.765625 -23.609375 L 10.90625 -23.609375 L 10.90625 -21.125 L 11 -21.125 C 13.113281 -23.238281 15.367188 -24.296875 17.765625 -24.296875 C 19.484375 -24.296875 21.09375 -23.941406 22.59375 -23.234375 C 24.09375 -22.523438 25.226562 -21.4375 26 -19.96875 C 28.394531 -22.851562 31.003906 -24.296875 33.828125 -24.296875 C 36.335938 -24.296875 38.5 -23.585938 40.3125 -22.171875 C 42.125 -20.765625 43.03125 -18.554688 43.03125 -15.546875 L 43.03125 0 L 34.875 0 L 34.875 -13.34375 C 34.875 -14.601562 34.53125 -15.65625 33.84375 -16.5 C 33.15625 -17.34375 32.117188 -17.765625 30.734375 -17.765625 C 29.535156 -17.765625 28.625 -17.398438 28 -16.671875 C 27.375 -15.953125 27.03125 -15.085938 26.96875 -14.078125 L 26.96875 0 L 18.828125 0 L 18.828125 -13.34375 C 18.828125 -14.601562 18.476562 -15.65625 17.78125 -16.5 C 17.09375 -17.34375 16.054688 -17.765625 14.671875 -17.765625 C 13.421875 -17.765625 12.476562 -17.375 11.84375 -16.59375 C 11.21875 -15.8125 10.90625 -14.882812 10.90625 -13.8125 L 10.90625 0 Z M 2.765625 0 "/></g></g></g><g fill="#2882ff" fill-opacity="1"><g transform="translate(107.63221, 40.789548)"><g><path d="M 26.640625 -10.671875 L 9.53125 -10.671875 C 9.53125 -9.015625 10.066406 -7.785156 11.140625 -6.984375 C 12.210938 -6.191406 13.378906 -5.796875 14.640625 -5.796875 C 15.953125 -5.796875 16.988281 -5.972656 17.75 -6.328125 C 18.519531 -6.679688 19.398438 -7.378906 20.390625 -8.421875 L 26.28125 -5.46875 C 23.820312 -1.363281 19.738281 0.6875 14.03125 0.6875 C 10.476562 0.6875 7.425781 -0.53125 4.875 -2.96875 C 2.332031 -5.40625 1.0625 -8.34375 1.0625 -11.78125 C 1.0625 -15.21875 2.332031 -18.160156 4.875 -20.609375 C 7.425781 -23.066406 10.476562 -24.296875 14.03125 -24.296875 C 17.78125 -24.296875 20.828125 -23.210938 23.171875 -21.046875 C 25.515625 -18.890625 26.6875 -15.800781 26.6875 -11.78125 C 26.6875 -11.226562 26.671875 -10.859375 26.640625 -10.671875 Z M 9.75 -15.1875 L 18.734375 -15.1875 C 18.546875 -16.414062 18.0625 -17.359375 17.28125 -18.015625 C 16.5 -18.671875 15.492188 -19 14.265625 -19 C 12.910156 -19 11.832031 -18.644531 11.03125 -17.9375 C 10.238281 -17.238281 9.8125 -16.320312 9.75 -15.1875 Z M 9.75 -15.1875 "/></g></g></g><g fill="#2882ff" fill-opacity="1"><g transform="translate(133.804899, 40.789548)"><g><path d="M 22.96875 -7.828125 C 24.28125 -7.828125 25.554688 -8.023438 26.796875 -8.421875 C 28.046875 -8.816406 28.960938 -9.203125 29.546875 -9.578125 L 30.421875 -10.171875 L 34.09375 -2.8125 C 33.96875 -2.71875 33.796875 -2.59375 33.578125 -2.4375 C 33.367188 -2.28125 32.875 -1.992188 32.09375 -1.578125 C 31.3125 -1.171875 30.472656 -0.8125 29.578125 -0.5 C 28.691406 -0.195312 27.523438 0.0703125 26.078125 0.3125 C 24.640625 0.5625 23.15625 0.6875 21.625 0.6875 C 18.09375 0.6875 14.75 -0.175781 11.59375 -1.90625 C 8.4375 -3.644531 5.890625 -6.03125 3.953125 -9.0625 C 2.023438 -12.101562 1.0625 -15.382812 1.0625 -18.90625 C 1.0625 -21.582031 1.628906 -24.144531 2.765625 -26.59375 C 3.898438 -29.050781 5.410156 -31.15625 7.296875 -32.90625 C 9.179688 -34.65625 11.378906 -36.050781 13.890625 -37.09375 C 16.410156 -38.132812 18.988281 -38.65625 21.625 -38.65625 C 24.082031 -38.65625 26.34375 -38.363281 28.40625 -37.78125 C 30.476562 -37.195312 31.945312 -36.613281 32.8125 -36.03125 L 34.09375 -35.15625 L 30.421875 -27.796875 C 30.203125 -27.972656 29.878906 -28.191406 29.453125 -28.453125 C 29.023438 -28.722656 28.164062 -29.070312 26.875 -29.5 C 25.582031 -29.925781 24.28125 -30.140625 22.96875 -30.140625 C 20.875 -30.140625 19 -29.800781 17.34375 -29.125 C 15.6875 -28.445312 14.375 -27.554688 13.40625 -26.453125 C 12.445312 -25.347656 11.710938 -24.160156 11.203125 -22.890625 C 10.703125 -21.617188 10.453125 -20.320312 10.453125 -19 C 10.453125 -16.113281 11.53125 -13.53125 13.6875 -11.25 C 15.851562 -8.96875 18.945312 -7.828125 22.96875 -7.828125 Z M 22.96875 -7.828125 "/></g></g></g><g fill="#2882ff" fill-opacity="1"><g transform="translate(166.877333, 40.789548)"><g><path d="M 4.375 -2.921875 C 2.164062 -5.328125 1.0625 -8.28125 1.0625 -11.78125 C 1.0625 -15.28125 2.164062 -18.238281 4.375 -20.65625 C 6.582031 -23.082031 9.390625 -24.296875 12.796875 -24.296875 C 15.921875 -24.296875 18.492188 -23.3125 20.515625 -21.34375 L 20.515625 -23.609375 L 28.671875 -23.609375 L 28.671875 0 L 20.609375 0 L 20.609375 -2.671875 L 20.515625 -2.671875 C 18.492188 -0.429688 15.921875 0.6875 12.796875 0.6875 C 9.390625 0.6875 6.582031 -0.515625 4.375 -2.921875 Z M 11.296875 -15.78125 C 10.234375 -14.738281 9.703125 -13.40625 9.703125 -11.78125 C 9.703125 -10.15625 10.207031 -8.828125 11.21875 -7.796875 C 12.238281 -6.773438 13.578125 -6.265625 15.234375 -6.265625 C 16.828125 -6.265625 18.132812 -6.785156 19.15625 -7.828125 C 20.1875 -8.867188 20.703125 -10.1875 20.703125 -11.78125 C 20.703125 -13.40625 20.171875 -14.738281 19.109375 -15.78125 C 18.054688 -16.820312 16.765625 -17.34375 15.234375 -17.34375 C 13.671875 -17.34375 12.359375 -16.820312 11.296875 -15.78125 Z M 11.296875 -15.78125 "/></g></g></g><g fill="#2882ff" fill-opacity="1"><g transform="translate(196.729876, 40.789548)"><g><path d="M 2.765625 0 L 2.765625 -23.609375 L 10.90625 -23.609375 L 10.90625 -20.203125 L 11 -20.203125 C 11.0625 -20.328125 11.160156 -20.476562 11.296875 -20.65625 C 11.429688 -20.84375 11.726562 -21.164062 12.1875 -21.625 C 12.65625 -22.082031 13.148438 -22.492188 13.671875 -22.859375 C 14.191406 -23.234375 14.863281 -23.566406 15.6875 -23.859375 C 16.519531 -24.148438 17.363281 -24.296875 18.21875 -24.296875 C 19.113281 -24.296875 19.988281 -24.171875 20.84375 -23.921875 C 21.707031 -23.679688 22.335938 -23.4375 22.734375 -23.1875 L 23.375 -22.828125 L 19.96875 -15.921875 C 18.957031 -16.773438 17.546875 -17.203125 15.734375 -17.203125 C 14.753906 -17.203125 13.910156 -16.988281 13.203125 -16.5625 C 12.492188 -16.132812 11.992188 -15.613281 11.703125 -15 C 11.421875 -14.382812 11.21875 -13.863281 11.09375 -13.4375 C 10.96875 -13.007812 10.90625 -12.671875 10.90625 -12.421875 L 10.90625 0 Z M 2.765625 0 "/></g></g></g><g fill="#2882ff" fill-opacity="1"><g transform="translate(218.072729, 40.789548)"><g><path d="M 26.640625 -10.671875 L 9.53125 -10.671875 C 9.53125 -9.015625 10.066406 -7.785156 11.140625 -6.984375 C 12.210938 -6.191406 13.378906 -5.796875 14.640625 -5.796875 C 15.953125 -5.796875 16.988281 -5.972656 17.75 -6.328125 C 18.519531 -6.679688 19.398438 -7.378906 20.390625 -8.421875 L 26.28125 -5.46875 C 23.820312 -1.363281 19.738281 0.6875 14.03125 0.6875 C 10.476562 0.6875 7.425781 -0.53125 4.875 -2.96875 C 2.332031 -5.40625 1.0625 -8.34375 1.0625 -11.78125 C 1.0625 -15.21875 2.332031 -18.160156 4.875 -20.609375 C 7.425781 -23.066406 10.476562 -24.296875 14.03125 -24.296875 C 17.78125 -24.296875 20.828125 -23.210938 23.171875 -21.046875 C 25.515625 -18.890625 26.6875 -15.800781 26.6875 -11.78125 C 26.6875 -11.226562 26.671875 -10.859375 26.640625 -10.671875 Z M 9.75 -15.1875 L 18.734375 -15.1875 C 18.546875 -16.414062 18.0625 -17.359375 17.28125 -18.015625 C 16.5 -18.671875 15.492188 -19 14.265625 -19 C 12.910156 -19 11.832031 -18.644531 11.03125 -17.9375 C 10.238281 -17.238281 9.8125 -16.320312 9.75 -15.1875 Z M 9.75 -15.1875 "/></g></g></g></g></g><g fill="#1957ad" fill-opacity="1"><g transform="translate(92.825132, 326.421687)"><g><path d="M 5.546875 0.1875 C 4.578125 0.1875 3.71875 -0.0195312 2.96875 -0.4375 C 2.226562 -0.851562 1.644531 -1.429688 1.21875 -2.171875 C 0.789062 -2.910156 0.578125 -3.765625 0.578125 -4.734375 C 0.578125 -5.703125 0.785156 -6.554688 1.203125 -7.296875 C 1.628906 -8.035156 2.210938 -8.613281 2.953125 -9.03125 C 3.703125 -9.445312 4.550781 -9.65625 5.5 -9.65625 C 6.269531 -9.65625 6.976562 -9.519531 7.625 -9.25 C 8.28125 -8.976562 8.832031 -8.597656 9.28125 -8.109375 C 9.738281 -7.617188 10.0625 -7.039062 10.25 -6.375 L 7.9375 -6.375 C 7.71875 -6.789062 7.394531 -7.113281 6.96875 -7.34375 C 6.550781 -7.570312 6.078125 -7.6875 5.546875 -7.6875 C 4.992188 -7.6875 4.503906 -7.554688 4.078125 -7.296875 C 3.660156 -7.046875 3.332031 -6.703125 3.09375 -6.265625 C 2.851562 -5.828125 2.734375 -5.316406 2.734375 -4.734375 C 2.734375 -4.171875 2.847656 -3.664062 3.078125 -3.21875 C 3.316406 -2.78125 3.644531 -2.429688 4.0625 -2.171875 C 4.488281 -1.910156 4.992188 -1.78125 5.578125 -1.78125 C 6.265625 -1.78125 6.835938 -1.957031 7.296875 -2.3125 C 7.765625 -2.664062 8.066406 -3.128906 8.203125 -3.703125 L 5.125 -3.703125 L 5.125 -5.375 L 10.46875 -5.375 C 10.519531 -4.5625 10.441406 -3.816406 10.234375 -3.140625 C 10.023438 -2.460938 9.703125 -1.875 9.265625 -1.375 C 8.828125 -0.875 8.289062 -0.488281 7.65625 -0.21875 C 7.03125 0.0507812 6.328125 0.1875 5.546875 0.1875 Z M 5.546875 0.1875 "/></g></g></g><g fill="#1957ad" fill-opacity="1"><g transform="translate(106.581262, 326.421687)"><g><path d="M 1.140625 0 L 1.140625 -9.46875 L 7.359375 -9.46875 L 7.359375 -7.65625 L 3.28125 -7.65625 L 3.28125 -5.703125 L 7 -5.703125 L 7 -3.890625 L 3.28125 -3.890625 L 3.28125 -1.828125 L 7.515625 -1.828125 L 7.515625 0 Z M 1.140625 0 "/></g></g></g><g fill="#1957ad" fill-opacity="1"><g transform="translate(117.497448, 326.421687)"><g><path d="M 1.140625 0 L 1.140625 -9.46875 L 2.96875 -9.46875 L 7.140625 -3.703125 L 7.140625 -9.46875 L 9.28125 -9.46875 L 9.28125 0 L 7.453125 0 L 3.28125 -5.8125 L 3.28125 0 Z M 1.140625 0 "/></g></g></g><g fill="#1957ad" fill-opacity="1"><g transform="translate(130.631488, 326.421687)"><g><path d="M 1.140625 0 L 1.140625 -9.46875 L 7.359375 -9.46875 L 7.359375 -7.65625 L 3.28125 -7.65625 L 3.28125 -5.703125 L 7 -5.703125 L 7 -3.890625 L 3.28125 -3.890625 L 3.28125 -1.828125 L 7.515625 -1.828125 L 7.515625 0 Z M 1.140625 0 "/></g></g></g><g fill="#1957ad" fill-opacity="1"><g transform="translate(141.547674, 326.421687)"><g><path d="M 1.140625 0 L 1.140625 -9.46875 L 5.1875 -9.46875 C 5.90625 -9.46875 6.53125 -9.335938 7.0625 -9.078125 C 7.59375 -8.816406 8.003906 -8.441406 8.296875 -7.953125 C 8.585938 -7.460938 8.734375 -6.878906 8.734375 -6.203125 C 8.734375 -5.515625 8.570312 -4.921875 8.25 -4.421875 C 7.9375 -3.921875 7.492188 -3.539062 6.921875 -3.28125 L 8.890625 0 L 6.40625 0 L 4.703125 -2.953125 L 3.28125 -2.953125 L 3.28125 0 Z M 3.265625 -4.765625 L 4.890625 -4.765625 C 5.429688 -4.765625 5.84375 -4.882812 6.125 -5.125 C 6.40625 -5.375 6.546875 -5.734375 6.546875 -6.203125 C 6.546875 -6.660156 6.40625 -7.007812 6.125 -7.25 C 5.84375 -7.5 5.429688 -7.625 4.890625 -7.625 L 3.265625 -7.625 Z M 3.265625 -4.765625 "/></g></g></g><g fill="#1957ad" fill-opacity="1"><g transform="translate(153.789167, 326.421687)"><g><path d="M 0.125 0 L 3.890625 -9.46875 L 6 -9.46875 L 9.75 0 L 7.453125 0 L 6.8125 -1.640625 L 3.0625 -1.640625 L 2.421875 0 Z M 3.609375 -3.328125 L 6.28125 -3.328125 L 4.9375 -6.796875 Z M 3.609375 -3.328125 "/></g></g></g><g fill="#1957ad" fill-opacity="1"><g transform="translate(166.382268, 326.421687)"><g><path d="M 1.140625 0 L 1.140625 -9.46875 L 3.28125 -9.46875 L 3.28125 -2.015625 L 7.421875 -2.015625 L 7.421875 0 Z M 1.140625 0 "/></g></g></g><g fill="#1957ad" fill-opacity="1"><g transform="translate(176.89275, 326.421687)"><g/></g></g><g fill="#1957ad" fill-opacity="1"><g transform="translate(182.791709, 326.421687)"><g><path d="M 7 0 L 7 -3.8125 L 3.28125 -3.8125 L 3.28125 0 L 1.140625 0 L 1.140625 -9.46875 L 3.28125 -9.46875 L 3.28125 -5.828125 L 7 -5.828125 L 7 -9.46875 L 9.140625 -9.46875 L 9.140625 0 Z M 7 0 "/></g></g></g><g fill="#1957ad" fill-opacity="1"><g transform="translate(195.790514, 326.421687)"><g><path d="M 5.625 0.1875 C 4.644531 0.1875 3.773438 -0.0195312 3.015625 -0.4375 C 2.253906 -0.851562 1.65625 -1.429688 1.21875 -2.171875 C 0.789062 -2.910156 0.578125 -3.765625 0.578125 -4.734375 C 0.578125 -5.703125 0.789062 -6.554688 1.21875 -7.296875 C 1.65625 -8.035156 2.253906 -8.613281 3.015625 -9.03125 C 3.773438 -9.445312 4.644531 -9.65625 5.625 -9.65625 C 6.625 -9.65625 7.5 -9.445312 8.25 -9.03125 C 9.007812 -8.613281 9.601562 -8.035156 10.03125 -7.296875 C 10.46875 -6.554688 10.6875 -5.703125 10.6875 -4.734375 C 10.6875 -3.765625 10.46875 -2.910156 10.03125 -2.171875 C 9.601562 -1.429688 9.007812 -0.851562 8.25 -0.4375 C 7.5 -0.0195312 6.625 0.1875 5.625 0.1875 Z M 2.78125 -4.734375 C 2.78125 -4.171875 2.898438 -3.671875 3.140625 -3.234375 C 3.378906 -2.796875 3.710938 -2.457031 4.140625 -2.21875 C 4.578125 -1.976562 5.070312 -1.859375 5.625 -1.859375 C 6.195312 -1.859375 6.695312 -1.976562 7.125 -2.21875 C 7.550781 -2.457031 7.882812 -2.796875 8.125 -3.234375 C 8.363281 -3.671875 8.484375 -4.171875 8.484375 -4.734375 C 8.484375 -5.304688 8.363281 -5.804688 8.125 -6.234375 C 7.882812 -6.671875 7.550781 -7.007812 7.125 -7.25 C 6.695312 -7.5 6.195312 -7.625 5.625 -7.625 C 5.070312 -7.625 4.578125 -7.5 4.140625 -7.25 C 3.710938 -7.007812 3.378906 -6.671875 3.140625 -6.234375 C 2.898438 -5.804688 2.78125 -5.304688 2.78125 -4.734375 Z M 2.78125 -4.734375 "/></g></g></g><g fill="#1957ad" fill-opacity="1"><g transform="translate(209.776544, 326.421687)"><g><path d="M 4.4375 0.1875 C 3.644531 0.1875 2.960938 0.0546875 2.390625 -0.203125 C 1.816406 -0.460938 1.375 -0.832031 1.0625 -1.3125 C 0.75 -1.800781 0.59375 -2.367188 0.59375 -3.015625 L 2.703125 -3.015625 C 2.703125 -2.566406 2.859375 -2.210938 3.171875 -1.953125 C 3.484375 -1.703125 3.898438 -1.578125 4.421875 -1.578125 C 4.867188 -1.578125 5.222656 -1.664062 5.484375 -1.84375 C 5.753906 -2.019531 5.890625 -2.265625 5.890625 -2.578125 C 5.890625 -2.910156 5.726562 -3.179688 5.40625 -3.390625 C 5.09375 -3.597656 4.601562 -3.773438 3.9375 -3.921875 C 2.820312 -4.160156 2 -4.515625 1.46875 -4.984375 C 0.9375 -5.460938 0.671875 -6.085938 0.671875 -6.859375 C 0.671875 -7.722656 0.988281 -8.40625 1.625 -8.90625 C 2.257812 -9.40625 3.117188 -9.65625 4.203125 -9.65625 C 4.953125 -9.65625 5.601562 -9.523438 6.15625 -9.265625 C 6.707031 -9.015625 7.132812 -8.65625 7.4375 -8.1875 C 7.738281 -7.726562 7.890625 -7.175781 7.890625 -6.53125 L 5.8125 -6.53125 C 5.8125 -6.957031 5.671875 -7.289062 5.390625 -7.53125 C 5.117188 -7.78125 4.734375 -7.90625 4.234375 -7.90625 C 3.785156 -7.90625 3.429688 -7.816406 3.171875 -7.640625 C 2.910156 -7.460938 2.78125 -7.21875 2.78125 -6.90625 C 2.78125 -6.613281 2.921875 -6.367188 3.203125 -6.171875 C 3.492188 -5.972656 4 -5.785156 4.71875 -5.609375 C 5.90625 -5.335938 6.757812 -4.960938 7.28125 -4.484375 C 7.800781 -4.015625 8.0625 -3.410156 8.0625 -2.671875 C 8.0625 -1.773438 7.738281 -1.070312 7.09375 -0.5625 C 6.445312 -0.0625 5.5625 0.1875 4.4375 0.1875 Z M 4.4375 0.1875 "/></g></g></g><g fill="#1957ad" fill-opacity="1"><g transform="translate(221.166058, 326.421687)"><g><path d="M 1.140625 0 L 1.140625 -9.46875 L 4.84375 -9.46875 C 5.613281 -9.46875 6.273438 -9.328125 6.828125 -9.046875 C 7.390625 -8.773438 7.828125 -8.378906 8.140625 -7.859375 C 8.453125 -7.347656 8.609375 -6.742188 8.609375 -6.046875 C 8.609375 -5.359375 8.453125 -4.757812 8.140625 -4.25 C 7.828125 -3.738281 7.390625 -3.34375 6.828125 -3.0625 C 6.273438 -2.78125 5.613281 -2.640625 4.84375 -2.640625 L 3.28125 -2.640625 L 3.28125 0 Z M 3.28125 -4.5 L 4.671875 -4.5 C 5.222656 -4.5 5.648438 -4.628906 5.953125 -4.890625 C 6.253906 -5.160156 6.40625 -5.539062 6.40625 -6.03125 C 6.40625 -6.53125 6.253906 -6.914062 5.953125 -7.1875 C 5.648438 -7.457031 5.222656 -7.59375 4.671875 -7.59375 L 3.28125 -7.59375 Z M 3.28125 -4.5 "/></g></g></g><g fill="#1957ad" fill-opacity="1"><g transform="translate(232.880138, 326.421687)"><g><path d="M 1.140625 0 L 1.140625 -9.46875 L 3.28125 -9.46875 L 3.28125 0 Z M 1.140625 0 "/></g></g></g><g fill="#1957ad" fill-opacity="1"><g transform="translate(240.023265, 326.421687)"><g><path d="M 3.40625 0 L 3.40625 -7.453125 L 0.40625 -7.453125 L 0.40625 -9.46875 L 8.5625 -9.46875 L 8.5625 -7.453125 L 5.5625 -7.453125 L 5.5625 0 Z M 3.40625 0 "/></g></g></g><g fill="#1957ad" fill-opacity="1"><g transform="translate(251.710292, 326.421687)"><g><path d="M 0.125 0 L 3.890625 -9.46875 L 6 -9.46875 L 9.75 0 L 7.453125 0 L 6.8125 -1.640625 L 3.0625 -1.640625 L 2.421875 0 Z M 3.609375 -3.328125 L 6.28125 -3.328125 L 4.9375 -6.796875 Z M 3.609375 -3.328125 "/></g></g></g><g fill="#1957ad" fill-opacity="1"><g transform="translate(264.303392, 326.421687)"><g><path d="M 1.140625 0 L 1.140625 -9.46875 L 3.28125 -9.46875 L 3.28125 -2.015625 L 7.421875 -2.015625 L 7.421875 0 Z M 1.140625 0 "/></g></g></g></svg>