<svg xmlns="http://www.w3.org/2000/svg" xmlns:xlink="http://www.w3.org/1999/xlink" width="2000" zoomAndPan="magnify" viewBox="0 0 1500 599.999999" height="800" preserveAspectRatio="xMidYMid meet" version="1.0"><defs><g/><clipPath id="c63eb15505"><path d="M 119 330 L 1363 330 L 1363 464.558594 L 119 464.558594 Z M 119 330 " clip-rule="nonzero"/></clipPath><clipPath id="4226ee1057"><rect x="0" width="1244" y="0" height="135"/></clipPath><clipPath id="d9ff0d869f"><rect x="0" width="1500" y="0" height="465"/></clipPath></defs><g transform="matrix(1, 0, 0, 1, 0, 68)"><g clip-path="url(#d9ff0d869f)"><g fill="#ffffff" fill-opacity="1"><g transform="translate(-0.926867, 255.024119)"><g><path d="M 16.9375 -232.9375 L 101.921875 -232.9375 C 125.640625 -232.9375 144.835938 -226.816406 159.515625 -214.578125 C 174.203125 -202.347656 181.546875 -184.5625 181.546875 -161.21875 C 181.546875 -137.875 174.109375 -119.566406 159.234375 -106.296875 C 144.367188 -93.023438 125.265625 -86.390625 101.921875 -86.390625 L 70.015625 -86.390625 L 70.015625 0 L 16.9375 0 Z M 70.015625 -128.75 L 84.984375 -128.75 C 96.835938 -128.75 106.578125 -131.144531 114.203125 -135.9375 C 121.828125 -140.738281 125.640625 -148.601562 125.640625 -159.53125 C 125.640625 -170.632812 121.828125 -178.582031 114.203125 -183.375 C 106.578125 -188.175781 96.835938 -190.578125 84.984375 -190.578125 L 70.015625 -190.578125 Z M 70.015625 -128.75 "/></g></g></g><g fill="#ffffff" fill-opacity="1"><g transform="translate(177.51785, 255.024119)"><g><path d="M 16.9375 0 L 16.9375 -144.84375 L 66.921875 -144.84375 L 66.921875 -123.953125 L 67.484375 -123.953125 C 67.859375 -124.703125 68.46875 -125.640625 69.3125 -126.765625 C 70.164062 -127.898438 72.003906 -129.878906 74.828125 -132.703125 C 77.648438 -135.523438 80.660156 -138.066406 83.859375 -140.328125 C 87.054688 -142.585938 91.195312 -144.609375 96.28125 -146.390625 C 101.363281 -148.179688 106.539062 -149.078125 111.8125 -149.078125 C 117.269531 -149.078125 122.632812 -148.320312 127.90625 -146.8125 C 133.175781 -145.3125 137.035156 -143.804688 139.484375 -142.296875 L 143.4375 -140.046875 L 122.53125 -97.6875 C 116.320312 -102.957031 107.664062 -105.59375 96.5625 -105.59375 C 90.539062 -105.59375 85.363281 -104.273438 81.03125 -101.640625 C 76.695312 -99.003906 73.632812 -95.800781 71.84375 -92.03125 C 70.0625 -88.269531 68.796875 -85.070312 68.046875 -82.4375 C 67.296875 -79.800781 66.921875 -77.734375 66.921875 -76.234375 L 66.921875 0 Z M 16.9375 0 "/></g></g></g><g fill="#ffffff" fill-opacity="1"><g transform="translate(308.527833, 255.024119)"><g><path d="M 21.734375 -225.59375 C 27.578125 -231.425781 34.546875 -234.34375 42.640625 -234.34375 C 50.734375 -234.34375 57.695312 -231.425781 63.53125 -225.59375 C 69.363281 -219.757812 72.28125 -212.796875 72.28125 -204.703125 C 72.28125 -196.609375 69.363281 -189.640625 63.53125 -183.796875 C 57.695312 -177.960938 50.734375 -175.046875 42.640625 -175.046875 C 34.546875 -175.046875 27.578125 -177.960938 21.734375 -183.796875 C 15.898438 -189.640625 12.984375 -196.609375 12.984375 -204.703125 C 12.984375 -212.796875 15.898438 -219.757812 21.734375 -225.59375 Z M 16.9375 -144.84375 L 16.9375 0 L 66.921875 0 L 66.921875 -144.84375 Z M 16.9375 -144.84375 "/></g></g></g><g fill="#ffffff" fill-opacity="1"><g transform="translate(384.197401, 255.024119)"><g><path d="M 16.9375 0 L 16.9375 -144.84375 L 66.921875 -144.84375 L 66.921875 -129.59375 L 67.484375 -129.59375 C 80.472656 -142.582031 94.304688 -149.078125 108.984375 -149.078125 C 119.523438 -149.078125 129.40625 -146.910156 138.625 -142.578125 C 147.851562 -138.253906 154.820312 -131.570312 159.53125 -122.53125 C 174.207031 -140.226562 190.203125 -149.078125 207.515625 -149.078125 C 222.953125 -149.078125 236.222656 -144.75 247.328125 -136.09375 C 258.429688 -127.4375 263.984375 -113.882812 263.984375 -95.4375 L 263.984375 0 L 214.015625 0 L 214.015625 -81.875 C 214.015625 -89.59375 211.894531 -96.039062 207.65625 -101.21875 C 203.425781 -106.394531 197.078125 -108.984375 188.609375 -108.984375 C 181.265625 -108.984375 175.660156 -106.769531 171.796875 -102.34375 C 167.941406 -97.925781 165.828125 -92.609375 165.453125 -86.390625 L 165.453125 0 L 115.484375 0 L 115.484375 -81.875 C 115.484375 -89.59375 113.363281 -96.039062 109.125 -101.21875 C 104.882812 -106.394531 98.53125 -108.984375 90.0625 -108.984375 C 82.34375 -108.984375 76.554688 -106.582031 72.703125 -101.78125 C 68.847656 -96.976562 66.921875 -91.285156 66.921875 -84.703125 L 66.921875 0 Z M 16.9375 0 "/></g></g></g><g fill="#ffffff" fill-opacity="1"><g transform="translate(652.711533, 255.024119)"><g><path d="M 163.484375 -65.5 L 58.4375 -65.5 C 58.4375 -55.332031 61.726562 -47.800781 68.3125 -42.90625 C 74.90625 -38.019531 82.0625 -35.578125 89.78125 -35.578125 C 97.875 -35.578125 104.273438 -36.65625 108.984375 -38.8125 C 113.691406 -40.976562 119.054688 -45.265625 125.078125 -51.671875 L 161.21875 -33.59375 C 146.15625 -8.375 121.117188 4.234375 86.109375 4.234375 C 64.273438 4.234375 45.546875 -3.242188 29.921875 -18.203125 C 14.304688 -33.171875 6.5 -51.195312 6.5 -72.28125 C 6.5 -93.363281 14.304688 -111.429688 29.921875 -126.484375 C 45.546875 -141.546875 64.273438 -149.078125 86.109375 -149.078125 C 109.078125 -149.078125 127.757812 -142.441406 142.15625 -129.171875 C 156.5625 -115.898438 163.765625 -96.9375 163.765625 -72.28125 C 163.765625 -68.894531 163.671875 -66.632812 163.484375 -65.5 Z M 59.859375 -93.171875 L 114.90625 -93.171875 C 113.78125 -100.703125 110.816406 -106.488281 106.015625 -110.53125 C 101.222656 -114.582031 95.0625 -116.609375 87.53125 -116.609375 C 79.25 -116.609375 72.660156 -114.441406 67.765625 -110.109375 C 62.867188 -105.785156 60.234375 -100.140625 59.859375 -93.171875 Z M 59.859375 -93.171875 "/></g></g></g><g fill="#ffffff" fill-opacity="1"><g transform="translate(813.368191, 255.024119)"><g><path d="M 140.890625 -48 C 148.984375 -48 156.84375 -49.222656 164.46875 -51.671875 C 172.09375 -54.117188 177.691406 -56.472656 181.265625 -58.734375 L 186.625 -62.390625 L 209.21875 -17.21875 C 208.46875 -16.65625 207.429688 -15.898438 206.109375 -14.953125 C 204.796875 -14.015625 201.738281 -12.273438 196.9375 -9.734375 C 192.132812 -7.191406 187.003906 -4.976562 181.546875 -3.09375 C 176.085938 -1.21875 168.929688 0.46875 160.078125 1.96875 C 151.234375 3.476562 142.109375 4.234375 132.703125 4.234375 C 111.054688 4.234375 90.535156 -1.082031 71.140625 -11.71875 C 51.753906 -22.351562 36.132812 -36.988281 24.28125 -55.625 C 12.425781 -74.257812 6.5 -94.398438 6.5 -116.046875 C 6.5 -132.421875 9.976562 -148.132812 16.9375 -163.1875 C 23.90625 -178.25 33.175781 -191.144531 44.75 -201.875 C 56.320312 -212.601562 69.828125 -221.164062 85.265625 -227.5625 C 100.703125 -233.96875 116.515625 -237.171875 132.703125 -237.171875 C 147.765625 -237.171875 161.644531 -235.378906 174.34375 -231.796875 C 187.050781 -228.222656 196.039062 -224.648438 201.3125 -221.078125 L 209.21875 -215.703125 L 186.625 -170.53125 C 185.3125 -171.664062 183.335938 -173.03125 180.703125 -174.625 C 178.066406 -176.226562 172.796875 -178.347656 164.890625 -180.984375 C 156.984375 -183.617188 148.984375 -184.9375 140.890625 -184.9375 C 128.085938 -184.9375 116.601562 -182.863281 106.4375 -178.71875 C 96.28125 -174.582031 88.234375 -169.125 82.296875 -162.34375 C 76.367188 -155.570312 71.851562 -148.28125 68.75 -140.46875 C 65.644531 -132.65625 64.09375 -124.703125 64.09375 -116.609375 C 64.09375 -98.910156 70.726562 -83.050781 84 -69.03125 C 97.269531 -55.007812 116.234375 -48 140.890625 -48 Z M 140.890625 -48 "/></g></g></g><g fill="#ffffff" fill-opacity="1"><g transform="translate(1016.37726, 255.024119)"><g><path d="M 26.828125 -17.921875 C 13.273438 -32.703125 6.5 -50.820312 6.5 -72.28125 C 6.5 -93.738281 13.273438 -111.898438 26.828125 -126.765625 C 40.378906 -141.640625 57.597656 -149.078125 78.484375 -149.078125 C 97.691406 -149.078125 113.503906 -143.050781 125.921875 -131 L 125.921875 -144.84375 L 175.90625 -144.84375 L 175.90625 0 L 126.484375 0 L 126.484375 -16.375 L 125.921875 -16.375 C 113.503906 -2.632812 97.691406 4.234375 78.484375 4.234375 C 57.597656 4.234375 40.378906 -3.148438 26.828125 -17.921875 Z M 69.3125 -96.84375 C 62.820312 -90.445312 59.578125 -82.257812 59.578125 -72.28125 C 59.578125 -62.300781 62.679688 -54.160156 68.890625 -47.859375 C 75.097656 -41.554688 83.285156 -38.40625 93.453125 -38.40625 C 103.242188 -38.40625 111.289062 -41.601562 117.59375 -48 C 123.90625 -54.394531 127.0625 -62.488281 127.0625 -72.28125 C 127.0625 -82.257812 123.8125 -90.445312 117.3125 -96.84375 C 110.820312 -103.238281 102.867188 -106.4375 93.453125 -106.4375 C 83.859375 -106.4375 75.8125 -103.238281 69.3125 -96.84375 Z M 69.3125 -96.84375 "/></g></g></g><g fill="#ffffff" fill-opacity="1"><g transform="translate(1199.621965, 255.024119)"><g><path d="M 16.9375 0 L 16.9375 -144.84375 L 66.921875 -144.84375 L 66.921875 -123.953125 L 67.484375 -123.953125 C 67.859375 -124.703125 68.46875 -125.640625 69.3125 -126.765625 C 70.164062 -127.898438 72.003906 -129.878906 74.828125 -132.703125 C 77.648438 -135.523438 80.660156 -138.066406 83.859375 -140.328125 C 87.054688 -142.585938 91.195312 -144.609375 96.28125 -146.390625 C 101.363281 -148.179688 106.539062 -149.078125 111.8125 -149.078125 C 117.269531 -149.078125 122.632812 -148.320312 127.90625 -146.8125 C 133.175781 -145.3125 137.035156 -143.804688 139.484375 -142.296875 L 143.4375 -140.046875 L 122.53125 -97.6875 C 116.320312 -102.957031 107.664062 -105.59375 96.5625 -105.59375 C 90.539062 -105.59375 85.363281 -104.273438 81.03125 -101.640625 C 76.695312 -99.003906 73.632812 -95.800781 71.84375 -92.03125 C 70.0625 -88.269531 68.796875 -85.070312 68.046875 -82.4375 C 67.296875 -79.800781 66.921875 -77.734375 66.921875 -76.234375 L 66.921875 0 Z M 16.9375 0 "/></g></g></g><g fill="#ffffff" fill-opacity="1"><g transform="translate(1330.631947, 255.024119)"><g><path d="M 163.484375 -65.5 L 58.4375 -65.5 C 58.4375 -55.332031 61.726562 -47.800781 68.3125 -42.90625 C 74.90625 -38.019531 82.0625 -35.578125 89.78125 -35.578125 C 97.875 -35.578125 104.273438 -36.65625 108.984375 -38.8125 C 113.691406 -40.976562 119.054688 -45.265625 125.078125 -51.671875 L 161.21875 -33.59375 C 146.15625 -8.375 121.117188 4.234375 86.109375 4.234375 C 64.273438 4.234375 45.546875 -3.242188 29.921875 -18.203125 C 14.304688 -33.171875 6.5 -51.195312 6.5 -72.28125 C 6.5 -93.363281 14.304688 -111.429688 29.921875 -126.484375 C 45.546875 -141.546875 64.273438 -149.078125 86.109375 -149.078125 C 109.078125 -149.078125 127.757812 -142.441406 142.15625 -129.171875 C 156.5625 -115.898438 163.765625 -96.9375 163.765625 -72.28125 C 163.765625 -68.894531 163.671875 -66.632812 163.484375 -65.5 Z M 59.859375 -93.171875 L 114.90625 -93.171875 C 113.78125 -100.703125 110.816406 -106.488281 106.015625 -110.53125 C 101.222656 -114.582031 95.0625 -116.609375 87.53125 -116.609375 C 79.25 -116.609375 72.660156 -114.441406 67.765625 -110.109375 C 62.867188 -105.785156 60.234375 -100.140625 59.859375 -93.171875 Z M 59.859375 -93.171875 "/></g></g></g><g clip-path="url(#c63eb15505)"><g transform="matrix(1, 0, 0, 1, 119, 330)"><g clip-path="url(#4226ee1057)"><g fill="#ffffff" fill-opacity="1"><g transform="translate(0.792881, 98.074994)"><g><path d="M 37.828125 1.296875 C 31.242188 1.296875 25.398438 -0.128906 20.296875 -2.984375 C 15.191406 -5.847656 11.191406 -9.800781 8.296875 -14.84375 C 5.410156 -19.894531 3.96875 -25.710938 3.96875 -32.296875 C 3.96875 -38.878906 5.394531 -44.691406 8.25 -49.734375 C 11.113281 -54.773438 15.082031 -58.722656 20.15625 -61.578125 C 25.226562 -64.441406 31.023438 -65.875 37.546875 -65.875 C 42.773438 -65.875 47.601562 -64.953125 52.03125 -63.109375 C 56.46875 -61.265625 60.238281 -58.664062 63.34375 -55.3125 C 66.445312 -51.957031 68.644531 -48.003906 69.9375 -43.453125 L 54.15625 -43.453125 C 52.625 -46.285156 50.425781 -48.484375 47.5625 -50.046875 C 44.695312 -51.617188 41.453125 -52.40625 37.828125 -52.40625 C 34.078125 -52.40625 30.753906 -51.539062 27.859375 -49.8125 C 24.972656 -48.09375 22.710938 -45.726562 21.078125 -42.71875 C 19.453125 -39.707031 18.640625 -36.234375 18.640625 -32.296875 C 18.640625 -28.421875 19.4375 -24.972656 21.03125 -21.953125 C 22.632812 -18.941406 24.878906 -16.554688 27.765625 -14.796875 C 30.660156 -13.046875 34.078125 -12.171875 38.015625 -12.171875 C 42.753906 -12.171875 46.691406 -13.367188 49.828125 -15.765625 C 52.960938 -18.171875 54.988281 -21.34375 55.90625 -25.28125 L 34.96875 -25.28125 L 34.96875 -36.625 L 71.40625 -36.625 C 71.78125 -31.09375 71.242188 -26.019531 69.796875 -21.40625 C 68.347656 -16.789062 66.132812 -12.773438 63.15625 -9.359375 C 60.175781 -5.953125 56.546875 -3.320312 52.265625 -1.46875 C 47.992188 0.375 43.179688 1.296875 37.828125 1.296875 Z M 37.828125 1.296875 "/></g></g></g><g fill="#ffffff" fill-opacity="1"><g transform="translate(94.635195, 98.074994)"><g><path d="M 7.75 0 L 7.75 -64.578125 L 50.1875 -64.578125 L 50.1875 -52.21875 L 22.328125 -52.21875 L 22.328125 -38.84375 L 47.703125 -38.84375 L 47.703125 -26.578125 L 22.328125 -26.578125 L 22.328125 -12.453125 L 51.203125 -12.453125 L 51.203125 0 Z M 7.75 0 "/></g></g></g><g fill="#ffffff" fill-opacity="1"><g transform="translate(169.10232, 98.074994)"><g><path d="M 7.75 0 L 7.75 -64.578125 L 20.203125 -64.578125 L 48.71875 -25.28125 L 48.71875 -64.578125 L 63.296875 -64.578125 L 63.296875 0 L 50.84375 0 L 22.328125 -39.578125 L 22.328125 0 Z M 7.75 0 "/></g></g></g><g fill="#ffffff" fill-opacity="1"><g transform="translate(258.700572, 98.074994)"><g><path d="M 7.75 0 L 7.75 -64.578125 L 50.1875 -64.578125 L 50.1875 -52.21875 L 22.328125 -52.21875 L 22.328125 -38.84375 L 47.703125 -38.84375 L 47.703125 -26.578125 L 22.328125 -26.578125 L 22.328125 -12.453125 L 51.203125 -12.453125 L 51.203125 0 Z M 7.75 0 "/></g></g></g><g fill="#ffffff" fill-opacity="1"><g transform="translate(333.167698, 98.074994)"><g><path d="M 7.75 0 L 7.75 -64.578125 L 35.34375 -64.578125 C 40.257812 -64.578125 44.53125 -63.6875 48.15625 -61.90625 C 51.789062 -60.125 54.59375 -57.570312 56.5625 -54.25 C 58.53125 -50.925781 59.515625 -46.957031 59.515625 -42.34375 C 59.515625 -37.613281 58.4375 -33.539062 56.28125 -30.125 C 54.125 -26.707031 51.109375 -24.140625 47.234375 -22.421875 L 60.625 0 L 43.640625 0 L 32.109375 -20.109375 L 22.421875 -20.109375 L 22.421875 0 Z M 22.234375 -32.484375 L 33.40625 -32.484375 C 37.03125 -32.484375 39.8125 -33.328125 41.75 -35.015625 C 43.6875 -36.703125 44.65625 -39.113281 44.65625 -42.25 C 44.65625 -45.394531 43.6875 -47.8125 41.75 -49.5 C 39.8125 -51.1875 37.03125 -52.03125 33.40625 -52.03125 L 22.234375 -52.03125 Z M 22.234375 -32.484375 "/></g></g></g><g fill="#ffffff" fill-opacity="1"><g transform="translate(416.67659, 98.074994)"><g><path d="M 0.828125 0 L 26.484375 -64.578125 L 40.875 -64.578125 L 66.53125 0 L 50.84375 0 L 46.5 -11.171875 L 20.859375 -11.171875 L 16.515625 0 Z M 24.640625 -22.703125 L 42.8125 -22.703125 L 33.671875 -46.3125 Z M 24.640625 -22.703125 "/></g></g></g><g fill="#ffffff" fill-opacity="1"><g transform="translate(502.584335, 98.074994)"><g><path d="M 7.75 0 L 7.75 -64.578125 L 22.421875 -64.578125 L 22.421875 -13.75 L 50.65625 -13.75 L 50.65625 0 Z M 7.75 0 "/></g></g></g><g fill="#ffffff" fill-opacity="1"><g transform="translate(574.283603, 98.074994)"><g/></g></g><g fill="#ffffff" fill-opacity="1"><g transform="translate(614.521282, 98.074994)"><g><path d="M 47.703125 0 L 47.703125 -26.015625 L 22.421875 -26.015625 L 22.421875 0 L 7.75 0 L 7.75 -64.578125 L 22.421875 -64.578125 L 22.421875 -39.765625 L 47.703125 -39.765625 L 47.703125 -64.578125 L 62.375 -64.578125 L 62.375 0 Z M 47.703125 0 "/></g></g></g><g fill="#ffffff" fill-opacity="1"><g transform="translate(703.196885, 98.074994)"><g><path d="M 38.375 1.296875 C 31.675781 1.296875 25.726562 -0.128906 20.53125 -2.984375 C 15.332031 -5.847656 11.269531 -9.800781 8.34375 -14.84375 C 5.425781 -19.894531 3.96875 -25.710938 3.96875 -32.296875 C 3.96875 -38.878906 5.425781 -44.691406 8.34375 -49.734375 C 11.269531 -54.773438 15.332031 -58.722656 20.53125 -61.578125 C 25.726562 -64.441406 31.675781 -65.875 38.375 -65.875 C 45.144531 -65.875 51.113281 -64.441406 56.28125 -61.578125 C 61.445312 -58.722656 65.503906 -54.773438 68.453125 -49.734375 C 71.410156 -44.691406 72.890625 -38.878906 72.890625 -32.296875 C 72.890625 -25.710938 71.410156 -19.894531 68.453125 -14.84375 C 65.503906 -9.800781 61.445312 -5.847656 56.28125 -2.984375 C 51.113281 -0.128906 45.144531 1.296875 38.375 1.296875 Z M 18.921875 -32.296875 C 18.921875 -28.421875 19.75 -25.003906 21.40625 -22.046875 C 23.0625 -19.097656 25.347656 -16.789062 28.265625 -15.125 C 31.191406 -13.46875 34.5625 -12.640625 38.375 -12.640625 C 42.25 -12.640625 45.644531 -13.46875 48.5625 -15.125 C 51.488281 -16.789062 53.765625 -19.097656 55.390625 -22.046875 C 57.023438 -25.003906 57.84375 -28.421875 57.84375 -32.296875 C 57.84375 -36.171875 57.023438 -39.582031 55.390625 -42.53125 C 53.765625 -45.488281 51.488281 -47.796875 48.5625 -49.453125 C 45.644531 -51.117188 42.25 -51.953125 38.375 -51.953125 C 34.5625 -51.953125 31.191406 -51.117188 28.265625 -49.453125 C 25.347656 -47.796875 23.0625 -45.488281 21.40625 -42.53125 C 19.75 -39.582031 18.921875 -36.171875 18.921875 -32.296875 Z M 18.921875 -32.296875 "/></g></g></g><g fill="#ffffff" fill-opacity="1"><g transform="translate(798.607629, 98.074994)"><g><path d="M 30.265625 1.296875 C 24.847656 1.296875 20.1875 0.40625 16.28125 -1.375 C 12.375 -3.164062 9.359375 -5.707031 7.234375 -9 C 5.117188 -12.289062 4.0625 -16.148438 4.0625 -20.578125 L 18.453125 -20.578125 C 18.453125 -17.503906 19.507812 -15.101562 21.625 -13.375 C 23.75 -11.65625 26.597656 -10.796875 30.171875 -10.796875 C 33.242188 -10.796875 35.671875 -11.394531 37.453125 -12.59375 C 39.242188 -13.789062 40.140625 -15.46875 40.140625 -17.625 C 40.140625 -19.894531 39.0625 -21.738281 36.90625 -23.15625 C 34.75 -24.570312 31.394531 -25.769531 26.84375 -26.75 C 19.28125 -28.351562 13.679688 -30.785156 10.046875 -34.046875 C 6.421875 -37.304688 4.609375 -41.550781 4.609375 -46.78125 C 4.609375 -52.6875 6.757812 -57.34375 11.0625 -60.75 C 15.375 -64.164062 21.25 -65.875 28.6875 -65.875 C 33.800781 -65.875 38.234375 -65 41.984375 -63.25 C 45.734375 -61.5 48.640625 -59.035156 50.703125 -55.859375 C 52.765625 -52.691406 53.796875 -48.925781 53.796875 -44.5625 L 39.671875 -44.5625 C 39.671875 -47.457031 38.71875 -49.734375 36.8125 -51.390625 C 34.90625 -53.054688 32.257812 -53.890625 28.875 -53.890625 C 25.800781 -53.890625 23.375 -53.285156 21.59375 -52.078125 C 19.8125 -50.878906 18.921875 -49.207031 18.921875 -47.0625 C 18.921875 -45.09375 19.898438 -43.429688 21.859375 -42.078125 C 23.828125 -40.722656 27.273438 -39.460938 32.203125 -38.296875 C 40.253906 -36.390625 46.0625 -33.832031 49.625 -30.625 C 53.195312 -27.425781 54.984375 -23.273438 54.984375 -18.171875 C 54.984375 -12.085938 52.785156 -7.320312 48.390625 -3.875 C 43.992188 -0.425781 37.953125 1.296875 30.265625 1.296875 Z M 30.265625 1.296875 "/></g></g></g><g fill="#ffffff" fill-opacity="1"><g transform="translate(876.303937, 98.074994)"><g><path d="M 7.75 0 L 7.75 -64.578125 L 33.03125 -64.578125 C 38.257812 -64.578125 42.78125 -63.625 46.59375 -61.71875 C 50.40625 -59.8125 53.375 -57.101562 55.5 -53.59375 C 57.625 -50.09375 58.6875 -45.976562 58.6875 -41.25 C 58.6875 -36.570312 57.625 -32.476562 55.5 -28.96875 C 53.375 -25.46875 50.40625 -22.757812 46.59375 -20.84375 C 42.78125 -18.9375 38.257812 -17.984375 33.03125 -17.984375 L 22.421875 -17.984375 L 22.421875 0 Z M 22.328125 -30.625 L 31.828125 -30.625 C 35.640625 -30.625 38.578125 -31.53125 40.640625 -33.34375 C 42.703125 -35.164062 43.734375 -37.769531 43.734375 -41.15625 C 43.734375 -44.53125 42.703125 -47.140625 40.640625 -48.984375 C 38.578125 -50.835938 35.640625 -51.765625 31.828125 -51.765625 L 22.328125 -51.765625 Z M 22.328125 -30.625 "/></g></g></g><g fill="#ffffff" fill-opacity="1"><g transform="translate(956.21455, 98.074994)"><g><path d="M 7.75 0 L 7.75 -64.578125 L 22.421875 -64.578125 L 22.421875 0 Z M 7.75 0 "/></g></g></g><g fill="#ffffff" fill-opacity="1"><g transform="translate(1004.940443, 98.074994)"><g><path d="M 23.25 0 L 23.25 -50.84375 L 2.765625 -50.84375 L 2.765625 -64.578125 L 58.40625 -64.578125 L 58.40625 -50.84375 L 37.921875 -50.84375 L 37.921875 0 Z M 23.25 0 "/></g></g></g><g fill="#ffffff" fill-opacity="1"><g transform="translate(1084.6666, 98.074994)"><g><path d="M 0.828125 0 L 26.484375 -64.578125 L 40.875 -64.578125 L 66.53125 0 L 50.84375 0 L 46.5 -11.171875 L 20.859375 -11.171875 L 16.515625 0 Z M 24.640625 -22.703125 L 42.8125 -22.703125 L 33.671875 -46.3125 Z M 24.640625 -22.703125 "/></g></g></g><g fill="#ffffff" fill-opacity="1"><g transform="translate(1170.574345, 98.074994)"><g><path d="M 7.75 0 L 7.75 -64.578125 L 22.421875 -64.578125 L 22.421875 -13.75 L 50.65625 -13.75 L 50.65625 0 Z M 7.75 0 "/></g></g></g></g></g></g></g></g></svg>