<svg xmlns="http://www.w3.org/2000/svg" xmlns:xlink="http://www.w3.org/1999/xlink" width="500" zoomAndPan="magnify" viewBox="0 0 375 374.999991" height="500" preserveAspectRatio="xMidYMid meet" version="1.0"><defs><clipPath id="49eda019c1"><path d="M 1.03125 0.507812 L 363.019531 0.507812 L 363.019531 362.492188 L 1.03125 362.492188 Z M 1.03125 0.507812 " clip-rule="nonzero"/></clipPath><clipPath id="be201a61ec"><path d="M 242.398438 0.507812 L 121.652344 0.507812 C 119.664062 0.507812 117.757812 1.296875 116.347656 2.703125 C 114.941406 4.109375 114.152344 6.019531 114.152344 8.007812 L 114.152344 106.128906 C 114.152344 108.117188 113.363281 110.023438 111.957031 111.429688 C 110.550781 112.835938 108.640625 113.628906 106.652344 113.628906 L 8.53125 113.628906 C 6.542969 113.628906 4.636719 114.417969 3.230469 115.824219 C 1.824219 117.230469 1.03125 119.136719 1.03125 121.128906 L 1.03125 241.871094 C 1.03125 243.863281 1.824219 245.769531 3.230469 247.175781 C 4.636719 248.582031 6.542969 249.371094 8.53125 249.371094 L 106.652344 249.371094 C 108.640625 249.371094 110.550781 250.164062 111.957031 251.570312 C 113.363281 252.976562 114.152344 254.882812 114.152344 256.871094 L 114.152344 354.992188 C 114.152344 356.980469 114.941406 358.890625 116.347656 360.296875 C 117.757812 361.703125 119.664062 362.492188 121.652344 362.492188 L 242.398438 362.492188 C 244.386719 362.492188 246.292969 361.703125 247.699219 360.296875 C 249.105469 358.890625 249.898438 356.980469 249.898438 354.992188 L 249.898438 256.871094 C 249.898438 254.882812 250.6875 252.976562 252.09375 251.570312 C 253.5 250.164062 255.40625 249.371094 257.398438 249.371094 L 355.519531 249.371094 C 357.507812 249.371094 359.414062 248.582031 360.820312 247.175781 C 362.226562 245.769531 363.019531 243.863281 363.019531 241.871094 L 363.019531 121.128906 C 363.019531 119.136719 362.226562 117.230469 360.820312 115.824219 C 359.414062 114.417969 357.507812 113.628906 355.519531 113.628906 L 257.398438 113.628906 C 255.40625 113.628906 253.5 112.835938 252.09375 111.429688 C 250.6875 110.023438 249.898438 108.117188 249.898438 106.128906 L 249.898438 8.007812 C 249.898438 6.019531 249.105469 4.109375 247.699219 2.703125 C 246.292969 1.296875 244.386719 0.507812 242.398438 0.507812 Z M 242.398438 0.507812 " clip-rule="nonzero"/></clipPath><clipPath id="9d31539ba7"><path d="M 0.03125 0.507812 L 362.019531 0.507812 L 362.019531 362.492188 L 0.03125 362.492188 Z M 0.03125 0.507812 " clip-rule="nonzero"/></clipPath><clipPath id="def54a5fac"><path d="M 241.398438 0.507812 L 120.652344 0.507812 C 118.664062 0.507812 116.757812 1.296875 115.347656 2.703125 C 113.941406 4.109375 113.152344 6.019531 113.152344 8.007812 L 113.152344 106.128906 C 113.152344 108.117188 112.363281 110.023438 110.957031 111.429688 C 109.550781 112.835938 107.640625 113.628906 105.652344 113.628906 L 7.53125 113.628906 C 5.542969 113.628906 3.636719 114.417969 2.230469 115.824219 C 0.824219 117.230469 0.03125 119.136719 0.03125 121.128906 L 0.03125 241.871094 C 0.03125 243.863281 0.824219 245.769531 2.230469 247.175781 C 3.636719 248.582031 5.542969 249.371094 7.53125 249.371094 L 105.652344 249.371094 C 107.640625 249.371094 109.550781 250.164062 110.957031 251.570312 C 112.363281 252.976562 113.152344 254.882812 113.152344 256.871094 L 113.152344 354.992188 C 113.152344 356.980469 113.941406 358.890625 115.347656 360.296875 C 116.757812 361.703125 118.664062 362.492188 120.652344 362.492188 L 241.398438 362.492188 C 243.386719 362.492188 245.292969 361.703125 246.699219 360.296875 C 248.105469 358.890625 248.898438 356.980469 248.898438 354.992188 L 248.898438 256.871094 C 248.898438 254.882812 249.6875 252.976562 251.09375 251.570312 C 252.5 250.164062 254.40625 249.371094 256.398438 249.371094 L 354.519531 249.371094 C 356.507812 249.371094 358.414062 248.582031 359.820312 247.175781 C 361.226562 245.769531 362.019531 243.863281 362.019531 241.871094 L 362.019531 121.128906 C 362.019531 119.136719 361.226562 117.230469 359.820312 115.824219 C 358.414062 114.417969 356.507812 113.628906 354.519531 113.628906 L 256.398438 113.628906 C 254.40625 113.628906 252.5 112.835938 251.09375 111.429688 C 249.6875 110.023438 248.898438 108.117188 248.898438 106.128906 L 248.898438 8.007812 C 248.898438 6.019531 248.105469 4.109375 246.699219 2.703125 C 245.292969 1.296875 243.386719 0.507812 241.398438 0.507812 Z M 241.398438 0.507812 " clip-rule="nonzero"/></clipPath><clipPath id="4c6c032e5d"><rect x="0" width="363" y="0" height="363"/></clipPath><clipPath id="b6ac4ea517"><path d="M 42.449219 90 L 322 90 L 322 330 L 42.449219 330 Z M 42.449219 90 " clip-rule="nonzero"/></clipPath><clipPath id="86bd819d51"><path d="M 53.515625 129.136719 C 30.882812 166.425781 46.828125 202.71875 66.867188 221.984375 L 175.914062 326.605469 C 180.441406 330.945312 187.59375 330.914062 192.082031 326.53125 L 298.726562 222.386719 C 317.363281 201.664062 324.507812 179.683594 320.539062 155.207031 C 315.058594 121.351562 287.15625 95.082031 252.691406 91.332031 C 231.554688 89.054688 211.132812 95.039062 195.195312 108.28125 C 190.90625 111.84375 187.074219 115.828125 183.730469 120.160156 C 179.765625 115.226562 175.117188 110.71875 169.859375 106.722656 C 151.53125 92.792969 128.203125 87.261719 105.792969 91.566406 C 84.570312 95.664062 65.519531 109.355469 53.515625 129.136719 Z M 53.515625 129.136719 " clip-rule="nonzero"/></clipPath><clipPath id="4170e64934"><path d="M 0.449219 0 L 280 0 L 280 240 L 0.449219 240 Z M 0.449219 0 " clip-rule="nonzero"/></clipPath><clipPath id="7baea62d78"><path d="M 11.515625 39.136719 C -11.117188 76.425781 4.828125 112.71875 24.867188 131.984375 L 133.914062 236.605469 C 138.441406 240.945312 145.59375 240.914062 150.082031 236.53125 L 256.726562 132.386719 C 275.363281 111.664062 282.507812 89.683594 278.539062 65.207031 C 273.058594 31.351562 245.15625 5.082031 210.691406 1.332031 C 189.554688 -0.945312 169.132812 5.039062 153.195312 18.28125 C 148.90625 21.84375 145.074219 25.828125 141.730469 30.160156 C 137.765625 25.226562 133.117188 20.71875 127.859375 16.722656 C 109.53125 2.792969 86.203125 -2.738281 63.792969 1.566406 C 42.570312 5.664062 23.519531 19.355469 11.515625 39.136719 Z M 11.515625 39.136719 " clip-rule="nonzero"/></clipPath><clipPath id="9d5f3d8797"><rect x="0" width="280" y="0" height="240"/></clipPath><clipPath id="d32b637a61"><path d="M 29 127 L 178 127 L 178 298 L 29 298 Z M 29 127 " clip-rule="nonzero"/></clipPath><clipPath id="6fdb674ee4"><path d="M 97.710938 101.386719 L 196.410156 149.542969 L 111.847656 322.871094 L 13.148438 274.714844 Z M 97.710938 101.386719 " clip-rule="nonzero"/></clipPath><clipPath id="45ffe6ad32"><path d="M 97.710938 101.386719 L 196.410156 149.542969 L 111.847656 322.871094 L 13.148438 274.714844 Z M 97.710938 101.386719 " clip-rule="nonzero"/></clipPath><clipPath id="a46cf02717"><path d="M 170 42 L 372 42 L 372 254 L 170 254 Z M 170 42 " clip-rule="nonzero"/></clipPath><clipPath id="b794579126"><path d="M 248.84375 257.109375 L 166.203125 184.785156 L 293.210938 39.65625 L 375.851562 111.980469 Z M 248.84375 257.109375 " clip-rule="nonzero"/></clipPath><clipPath id="96e9186ae7"><path d="M 28 10 L 165 10 L 165 194 L 28 194 Z M 28 10 " clip-rule="nonzero"/></clipPath><clipPath id="039971fd95"><path d="M 78.84375 215.109375 L -3.796875 142.785156 L 123.210938 -2.34375 L 205.851562 69.980469 Z M 78.84375 215.109375 " clip-rule="nonzero"/></clipPath><clipPath id="fb617f41e3"><path d="M -3.855469 142.738281 L 78.789062 215.0625 L 205.796875 69.933594 L 123.152344 -2.390625 Z M -3.855469 142.738281 " clip-rule="nonzero"/></clipPath><clipPath id="90f33bb2a1"><rect x="0" width="202" y="0" height="212"/></clipPath><clipPath id="02697bc410"><rect x="0" width="372" y="0" height="363"/></clipPath></defs><g transform="matrix(1, 0, 0, 1, 3, 6)"><g clip-path="url(#02697bc410)"><g clip-path="url(#49eda019c1)"><g clip-path="url(#be201a61ec)"><g transform="matrix(1, 0, 0, 1, 1, 0)"><g clip-path="url(#4c6c032e5d)"><g clip-path="url(#9d31539ba7)"><g clip-path="url(#def54a5fac)"><path fill="#00bba8" d="M 0.03125 0.507812 L 362.019531 0.507812 L 362.019531 362.492188 L 0.03125 362.492188 Z M 0.03125 0.507812 " fill-opacity="1" fill-rule="nonzero"/></g></g></g></g></g></g><g clip-path="url(#b6ac4ea517)"><g clip-path="url(#86bd819d51)"><g transform="matrix(1, 0, 0, 1, 42, 90)"><g clip-path="url(#9d5f3d8797)"><g clip-path="url(#4170e64934)"><g clip-path="url(#7baea62d78)"><path fill="#00857b" d="M 0.449219 0.136719 L 280.007812 0.136719 L 280.007812 244.394531 L 0.449219 244.394531 Z M 0.449219 0.136719 " fill-opacity="1" fill-rule="nonzero"/></g></g></g></g></g></g><g clip-path="url(#d32b637a61)"><g clip-path="url(#6fdb674ee4)"><g clip-path="url(#45ffe6ad32)"><path fill="#ffffff" d="M 29.160156 279.886719 C 33.390625 275.113281 36.792969 269.480469 41.332031 264.957031 C 44.226562 261.324219 47.136719 257.839844 50.457031 254.648438 C 54.171875 250.816406 57.824219 246.25 61.257812 241.867188 C 65.625 236.242188 68.941406 229.730469 72.761719 223.691406 C 76.902344 217.925781 80.945312 212.15625 84.828125 206.28125 C 87.757812 200.398438 91.636719 194.417969 90.980469 187.753906 C 91.480469 182.664062 91.503906 177.460938 90.578125 172.578125 C 89.863281 166.015625 86.578125 160.3125 84.238281 154.097656 C 84.738281 149.867188 75.90625 146.535156 82.046875 143.285156 C 88.1875 143.527344 93.894531 147.734375 96.460938 153.117188 C 98.691406 157.355469 98.957031 163.636719 104.710938 165.1875 C 110.371094 165.058594 114.070312 159.855469 117.554688 156.257812 C 122.0625 150.171875 125.503906 143.269531 130.703125 137.742188 C 135.3125 134.03125 140.285156 124 146.976562 129.34375 C 148.15625 135.0625 141.910156 140.289062 138.828125 144.847656 C 137.492188 149.097656 127.640625 157.285156 133.433594 159.957031 C 139.367188 158.433594 141.875 152.65625 147.628906 150.640625 C 152.132812 146.753906 158.167969 144.335938 162.800781 140.53125 C 170.453125 136.878906 172.726562 148.355469 165.769531 150.046875 C 162.335938 152.4375 158.984375 155.085938 155.773438 157.683594 C 151.488281 161.730469 144.796875 164.804688 141.855469 169.203125 C 148.976562 168.984375 155.347656 163.8125 162.066406 161.210938 C 166.925781 159.523438 177.675781 151.839844 177.566406 161.808594 C 174.355469 167.621094 166.332031 168.308594 161.554688 172.601562 C 156.605469 175.945312 149.792969 177.640625 145.542969 181.582031 C 148.433594 185.648438 155.175781 182.136719 159.671875 182.417969 C 165.476562 183.503906 172.296875 177.90625 176.960938 182.785156 C 175.605469 191.957031 164.039062 189.535156 157.710938 192.28125 C 152.605469 193.277344 147.464844 193.757812 142.683594 196.363281 C 138.328125 199.148438 135.363281 203.828125 131.382812 206.785156 C 127.347656 210.253906 121.835938 210.976562 117.730469 214.425781 C 113.023438 219.492188 109.746094 225.546875 106.179688 231.453125 C 100.539062 243.597656 92.460938 254.234375 86.285156 266.089844 C 82.5 273.714844 77.25 280.382812 73.308594 287.875 C 68.960938 290.628906 67.707031 301.613281 61.230469 296.199219 C 50.5625 290.863281 39.5 286.160156 29.222656 280.125 L 29.160156 279.867188 Z M 29.160156 279.886719 " fill-opacity="1" fill-rule="nonzero"/></g></g></g><g clip-path="url(#a46cf02717)"><g clip-path="url(#b794579126)"><g transform="matrix(1, 0, 0, 1, 170, 42)"><g clip-path="url(#90f33bb2a1)"><g clip-path="url(#96e9186ae7)"><g clip-path="url(#039971fd95)"><g clip-path="url(#fb617f41e3)"><path fill="#ffffff" d="M 134.125 10.367188 C 131.367188 16.117188 127.492188 21.4375 125.082031 27.371094 C 122.855469 31.449219 120.769531 35.484375 119.113281 39.78125 C 117.019531 44.6875 114.226562 49.824219 111.515625 54.691406 C 108.023438 60.894531 103.308594 66.472656 99.222656 72.335938 C 95.511719 78.390625 91.757812 84.351562 87.847656 90.207031 C 83.558594 95.1875 79.550781 101.082031 73.152344 103.058594 C 68.652344 105.492188 63.867188 107.535156 59.003906 108.570312 C 52.679688 110.457031 46.148438 109.636719 39.511719 109.890625 C 35.808594 111.992188 29.3125 105.136719 28.695312 112.058594 C 31.300781 117.625 37.390625 121.257812 43.34375 121.535156 C 48.117188 121.949219 54.011719 119.757812 57.671875 124.460938 C 59.742188 129.730469 56.382812 135.15625 54.414062 139.765625 C 50.554688 146.28125 45.523438 152.125 42.441406 159.058594 C 40.808594 164.746094 33.492188 173.21875 41.007812 177.320312 C 46.734375 176.191406 49.132812 168.40625 52.144531 163.796875 C 55.542969 160.917969 59.273438 148.664062 63.980469 152.964844 C 64.878906 159.027344 60.519531 163.582031 60.894531 169.664062 C 59.054688 175.320312 59.167969 181.824219 57.457031 187.570312 C 57.054688 196.039062 68.511719 193.6875 67.378906 186.617188 C 68.25 182.527344 69.390625 178.410156 70.539062 174.445312 C 72.613281 168.925781 72.855469 161.566406 75.769531 157.148438 C 78.324219 163.796875 76.027344 171.675781 76.230469 178.878906 C 76.5625 184.011719 73.644531 196.898438 82.792969 192.933594 C 86.90625 187.722656 84.429688 180.0625 86.535156 173.992188 C 87.699219 168.132812 86.625 161.195312 88.609375 155.753906 C 93.476562 156.839844 92.855469 164.414062 94.855469 168.449219 C 98.105469 173.378906 95.589844 181.839844 101.894531 184.246094 C 109.824219 179.441406 103.109375 169.71875 103.1875 162.820312 C 102.125 157.726562 100.578125 152.804688 101.128906 147.386719 C 102.007812 142.292969 105.171875 137.746094 106.355469 132.929688 C 107.988281 127.867188 106.519531 122.503906 108.105469 117.382812 C 110.953125 111.078125 115.265625 105.710938 119.328125 100.136719 C 128.335938 90.226562 135.011719 78.660156 143.546875 68.371094 C 149.109375 61.929688 153.222656 54.503906 158.601562 47.96875 C 159.453125 42.894531 169.09375 37.480469 161.59375 33.609375 C 152.539062 25.84375 143.917969 17.464844 134.371094 10.332031 L 134.109375 10.375 Z M 134.125 10.367188 " fill-opacity="1" fill-rule="nonzero"/></g></g></g></g></g></g></g></g></g></svg>