<svg xmlns="http://www.w3.org/2000/svg" xmlns:xlink="http://www.w3.org/1999/xlink" width="500" zoomAndPan="magnify" viewBox="0 0 375 374.999991" height="500" preserveAspectRatio="xMidYMid meet" version="1.0"><defs><clipPath id="0a15db5dd4"><path d="M 0.285156 0.507812 L 346.273438 0.507812 L 346.273438 346.492188 L 0.285156 346.492188 Z M 0.285156 0.507812 " clip-rule="nonzero"/></clipPath><clipPath id="631c2e1e38"><path d="M 230.652344 0.507812 L 115.90625 0.507812 C 111.765625 0.507812 108.40625 3.863281 108.40625 8.007812 L 108.40625 101.128906 C 108.40625 105.269531 105.050781 108.628906 100.90625 108.628906 L 7.785156 108.628906 C 3.644531 108.628906 0.285156 111.984375 0.285156 116.128906 L 0.285156 230.871094 C 0.285156 235.015625 3.644531 238.371094 7.785156 238.371094 L 100.90625 238.371094 C 105.050781 238.371094 108.40625 241.730469 108.40625 245.871094 L 108.40625 338.992188 C 108.40625 343.136719 111.765625 346.492188 115.90625 346.492188 L 230.652344 346.492188 C 234.796875 346.492188 238.152344 343.136719 238.152344 338.992188 L 238.152344 245.871094 C 238.152344 241.730469 241.511719 238.371094 245.652344 238.371094 L 338.773438 238.371094 C 342.917969 238.371094 346.273438 235.015625 346.273438 230.871094 L 346.273438 116.128906 C 346.273438 111.984375 342.917969 108.628906 338.773438 108.628906 L 245.652344 108.628906 C 241.511719 108.628906 238.152344 105.269531 238.152344 101.128906 L 238.152344 8.007812 C 238.152344 3.863281 234.796875 0.507812 230.652344 0.507812 Z M 230.652344 0.507812 " clip-rule="nonzero"/></clipPath><clipPath id="12c5e6041a"><path d="M 0.285156 0.507812 L 346.273438 0.507812 L 346.273438 346.492188 L 0.285156 346.492188 Z M 0.285156 0.507812 " clip-rule="nonzero"/></clipPath><clipPath id="675436171b"><path d="M 230.652344 0.507812 L 115.90625 0.507812 C 111.765625 0.507812 108.40625 3.863281 108.40625 8.007812 L 108.40625 101.128906 C 108.40625 105.269531 105.050781 108.628906 100.90625 108.628906 L 7.785156 108.628906 C 3.644531 108.628906 0.285156 111.984375 0.285156 116.128906 L 0.285156 230.871094 C 0.285156 235.015625 3.644531 238.371094 7.785156 238.371094 L 100.90625 238.371094 C 105.050781 238.371094 108.40625 241.730469 108.40625 245.871094 L 108.40625 338.992188 C 108.40625 343.136719 111.765625 346.492188 115.90625 346.492188 L 230.652344 346.492188 C 234.796875 346.492188 238.152344 343.136719 238.152344 338.992188 L 238.152344 245.871094 C 238.152344 241.730469 241.511719 238.371094 245.652344 238.371094 L 338.773438 238.371094 C 342.917969 238.371094 346.273438 235.015625 346.273438 230.871094 L 346.273438 116.128906 C 346.273438 111.984375 342.917969 108.628906 338.773438 108.628906 L 245.652344 108.628906 C 241.511719 108.628906 238.152344 105.269531 238.152344 101.128906 L 238.152344 8.007812 C 238.152344 3.863281 234.796875 0.507812 230.652344 0.507812 Z M 230.652344 0.507812 " clip-rule="nonzero"/></clipPath><clipPath id="735cfa398e"><rect x="0" width="347" y="0" height="347"/></clipPath><clipPath id="c416605252"><path d="M 39.875 86 L 307 86 L 307 315.988281 L 39.875 315.988281 Z M 39.875 86 " clip-rule="nonzero"/></clipPath><clipPath id="e1e5c93413"><path d="M 50.453125 123.453125 C 28.820312 159.09375 44.058594 193.78125 63.210938 212.195312 L 167.082031 311.847656 C 171.605469 316.1875 178.761719 316.15625 183.25 311.773438 L 284.824219 212.578125 C 302.636719 192.773438 309.464844 171.761719 305.671875 148.371094 C 300.433594 116.007812 273.765625 90.902344 240.824219 87.316406 C 220.621094 85.140625 201.101562 90.859375 185.871094 103.515625 C 181.769531 106.921875 178.105469 110.730469 174.910156 114.871094 C 171.121094 110.15625 166.679688 105.847656 161.652344 102.027344 C 144.136719 88.714844 121.835938 83.429688 100.417969 87.539062 C 80.132812 91.457031 61.925781 104.542969 50.453125 123.453125 Z M 50.453125 123.453125 " clip-rule="nonzero"/></clipPath><clipPath id="46951d1bd7"><path d="M 0.875 0.078125 L 268 0.078125 L 268 229.988281 L 0.875 229.988281 Z M 0.875 0.078125 " clip-rule="nonzero"/></clipPath><clipPath id="07638de3b5"><path d="M 11.453125 37.453125 C -10.179688 73.09375 5.058594 107.78125 24.210938 126.195312 L 128.082031 225.847656 C 132.605469 230.1875 139.761719 230.15625 144.25 225.773438 L 245.824219 126.578125 C 263.636719 106.773438 270.464844 85.761719 266.671875 62.371094 C 261.433594 30.007812 234.765625 4.902344 201.824219 1.316406 C 181.621094 -0.859375 162.101562 4.859375 146.871094 17.515625 C 142.769531 20.921875 139.105469 24.730469 135.910156 28.871094 C 132.121094 24.15625 127.679688 19.847656 122.652344 16.027344 C 105.136719 2.714844 82.835938 -2.570312 61.417969 1.539062 C 41.132812 5.457031 22.925781 18.542969 11.453125 37.453125 Z M 11.453125 37.453125 " clip-rule="nonzero"/></clipPath><clipPath id="995c713755"><rect x="0" width="268" y="0" height="230"/></clipPath><clipPath id="b428437b74"><path d="M 27 122 L 170 122 L 170 285 L 27 285 Z M 27 122 " clip-rule="nonzero"/></clipPath><clipPath id="33dc7e63af"><path d="M 92.691406 96.925781 L 186.902344 142.890625 L 106.207031 308.285156 L 12 262.320312 Z M 92.691406 96.925781 " clip-rule="nonzero"/></clipPath><clipPath id="82eebd1bea"><path d="M 92.691406 96.925781 L 186.902344 142.890625 L 106.207031 308.285156 L 12 262.320312 Z M 92.691406 96.925781 " clip-rule="nonzero"/></clipPath><clipPath id="6b391e71ef"><path d="M 162 40 L 356.320312 40 L 356.320312 243 L 162 243 Z M 162 40 " clip-rule="nonzero"/></clipPath><clipPath id="4fb893a0ad"><path d="M 237.152344 245.761719 L 158.269531 176.726562 L 279.464844 38.246094 L 358.347656 107.277344 Z M 237.152344 245.761719 " clip-rule="nonzero"/></clipPath><clipPath id="d1047d1659"><path d="M 27 10 L 157 10 L 157 186 L 27 186 Z M 27 10 " clip-rule="nonzero"/></clipPath><clipPath id="b26981e664"><path d="M 75.152344 205.761719 L -3.730469 136.726562 L 117.464844 -1.753906 L 196.347656 67.277344 Z M 75.152344 205.761719 " clip-rule="nonzero"/></clipPath><clipPath id="254191d06a"><path d="M -3.894531 136.585938 L 74.988281 205.617188 L 196.183594 67.136719 L 117.300781 -1.898438 Z M -3.894531 136.585938 " clip-rule="nonzero"/></clipPath><clipPath id="2fbe4343c9"><rect x="0" width="195" y="0" height="203"/></clipPath><clipPath id="a37d3cac32"><rect x="0" width="357" y="0" height="347"/></clipPath></defs><g transform="matrix(1, 0, 0, 1, 14, 14)"><g clip-path="url(#a37d3cac32)"><g clip-path="url(#0a15db5dd4)"><g clip-path="url(#631c2e1e38)"><g><g clip-path="url(#735cfa398e)"><g clip-path="url(#12c5e6041a)"><g clip-path="url(#675436171b)"><path fill="#00bba8" d="M 0.285156 0.507812 L 346.273438 0.507812 L 346.273438 346.492188 L 0.285156 346.492188 Z M 0.285156 0.507812 " fill-opacity="1" fill-rule="nonzero"/></g></g></g></g></g></g><g clip-path="url(#c416605252)"><g clip-path="url(#e1e5c93413)"><g transform="matrix(1, 0, 0, 1, 39, 86)"><g clip-path="url(#995c713755)"><g clip-path="url(#46951d1bd7)"><g clip-path="url(#07638de3b5)"><path fill="#2882ff" d="M 0.875 0.175781 L 268.078125 0.175781 L 268.078125 233.636719 L 0.875 233.636719 Z M 0.875 0.175781 " fill-opacity="1" fill-rule="nonzero"/></g></g></g></g></g></g><g clip-path="url(#b428437b74)"><g clip-path="url(#33dc7e63af)"><g clip-path="url(#82eebd1bea)"><path fill="#ffffff" d="M 27.175781 267.53125 C 31.222656 262.96875 34.472656 257.582031 38.808594 253.261719 C 41.578125 249.792969 44.359375 246.457031 47.53125 243.410156 C 51.082031 239.746094 54.570312 235.382812 57.855469 231.191406 C 62.027344 225.816406 65.195312 219.59375 68.851562 213.824219 C 72.808594 208.3125 76.671875 202.796875 80.382812 197.183594 C 83.179688 191.558594 86.890625 185.84375 86.261719 179.476562 C 86.742188 174.609375 86.765625 169.636719 85.878906 164.96875 C 85.195312 158.695312 82.054688 153.246094 79.816406 147.304688 C 80.296875 143.261719 71.855469 140.082031 77.722656 136.972656 C 83.59375 137.207031 89.046875 141.226562 91.5 146.367188 C 93.632812 150.421875 93.882812 156.425781 99.382812 157.90625 C 104.792969 157.78125 108.332031 152.808594 111.660156 149.371094 C 115.972656 143.554688 119.257812 136.957031 124.226562 131.675781 C 128.632812 128.128906 133.386719 118.542969 139.78125 123.648438 C 140.910156 129.113281 134.9375 134.109375 131.996094 138.464844 C 130.714844 142.53125 121.300781 150.351562 126.835938 152.910156 C 132.507812 151.453125 134.90625 145.929688 140.40625 144.003906 C 144.707031 140.285156 150.480469 137.976562 154.90625 134.34375 C 162.21875 130.851562 164.390625 141.820312 157.742188 143.4375 C 154.460938 145.722656 151.257812 148.25 148.1875 150.734375 C 144.09375 154.601562 137.699219 157.542969 134.886719 161.746094 C 141.691406 161.535156 147.78125 156.589844 154.203125 154.105469 C 158.847656 152.496094 169.125 145.148438 169.015625 154.679688 C 165.949219 160.230469 158.28125 160.886719 153.714844 164.992188 C 148.984375 168.1875 142.472656 169.808594 138.414062 173.574219 C 141.175781 177.460938 147.617188 174.109375 151.914062 174.375 C 157.460938 175.410156 163.984375 170.0625 168.4375 174.726562 C 167.144531 183.492188 156.089844 181.175781 150.039062 183.800781 C 145.160156 184.753906 140.246094 185.210938 135.679688 187.703125 C 131.515625 190.367188 128.683594 194.835938 124.878906 197.664062 C 121.023438 200.980469 115.753906 201.671875 111.828125 204.96875 C 107.328125 209.808594 104.195312 215.59375 100.789062 221.242188 C 95.398438 232.847656 87.675781 243.015625 81.773438 254.347656 C 78.15625 261.632812 73.140625 268.003906 69.371094 275.167969 C 65.21875 277.796875 64.019531 288.296875 57.828125 283.121094 C 47.632812 278.019531 37.058594 273.527344 27.238281 267.757812 L 27.179688 267.515625 Z M 27.175781 267.53125 " fill-opacity="1" fill-rule="nonzero"/></g></g></g><g clip-path="url(#6b391e71ef)"><g clip-path="url(#4fb893a0ad)"><g transform="matrix(1, 0, 0, 1, 162, 40)"><g clip-path="url(#2fbe4343c9)"><g clip-path="url(#d1047d1659)"><g clip-path="url(#b26981e664)"><g clip-path="url(#254191d06a)"><path fill="#ffffff" d="M 127.984375 10.074219 C 125.347656 15.570312 121.644531 20.652344 119.339844 26.328125 C 117.214844 30.222656 115.21875 34.078125 113.640625 38.1875 C 111.636719 42.875 108.96875 47.785156 106.375 52.4375 C 103.039062 58.367188 98.53125 63.699219 94.625 69.304688 C 91.078125 75.089844 87.492188 80.789062 83.757812 86.382812 C 79.65625 91.144531 75.824219 96.777344 69.710938 98.664062 C 65.410156 100.992188 60.835938 102.941406 56.1875 103.933594 C 50.140625 105.734375 43.902344 104.953125 37.558594 105.191406 C 34.015625 107.203125 27.8125 100.652344 27.222656 107.265625 C 29.710938 112.585938 35.527344 116.058594 41.222656 116.324219 C 45.785156 116.71875 51.414062 114.625 54.914062 119.121094 C 56.894531 124.15625 53.683594 129.34375 51.800781 133.746094 C 48.109375 139.972656 43.304688 145.558594 40.359375 152.1875 C 38.796875 157.625 31.800781 165.722656 38.988281 169.640625 C 44.460938 168.5625 46.753906 161.121094 49.628906 156.71875 C 52.878906 153.964844 56.441406 142.253906 60.945312 146.363281 C 61.800781 152.160156 57.636719 156.511719 57.992188 162.324219 C 56.234375 167.730469 56.34375 173.945312 54.707031 179.4375 C 54.320312 187.53125 65.277344 185.285156 64.191406 178.527344 C 65.027344 174.617188 66.117188 170.683594 67.214844 166.894531 C 69.195312 161.617188 69.425781 154.585938 72.210938 150.359375 C 74.652344 156.714844 72.457031 164.246094 72.652344 171.128906 C 72.96875 176.035156 70.179688 188.355469 78.921875 184.5625 C 82.851562 179.582031 80.488281 172.261719 82.5 166.460938 C 83.613281 160.859375 82.585938 154.230469 84.480469 149.027344 C 89.136719 150.066406 88.539062 157.308594 90.453125 161.164062 C 93.558594 165.875 91.152344 173.960938 97.179688 176.261719 C 104.757812 171.671875 98.339844 162.375 98.417969 155.78125 C 97.402344 150.914062 95.921875 146.210938 96.449219 141.03125 C 97.289062 136.164062 100.3125 131.816406 101.445312 127.214844 C 103.007812 122.375 101.601562 117.25 103.117188 112.355469 C 105.839844 106.332031 109.957031 101.199219 113.84375 95.871094 C 122.453125 86.402344 128.832031 75.347656 136.992188 65.511719 C 142.304688 59.355469 146.238281 52.261719 151.378906 46.011719 C 152.191406 41.164062 161.40625 35.988281 154.238281 32.289062 C 145.585938 24.863281 137.34375 16.859375 128.21875 10.039062 L 127.972656 10.082031 Z M 127.984375 10.074219 " fill-opacity="1" fill-rule="nonzero"/></g></g></g></g></g></g></g></g></g></svg>